solid OpenSCAD_Model
  facet normal -1 0 0
    outer loop
      vertex 0 10 0
      vertex 0 26.6 0
      vertex 0 10 -23.5
    endloop
  endfacet
  facet normal -1 0 0
    outer loop
      vertex 0 10 -23.5
      vertex 0 26.6 0
      vertex 0 26.6 -18
    endloop
  endfacet
  facet normal -1 -0 0
    outer loop
      vertex 0 10 -23.5
      vertex 0 26.6 -18
      vertex 0 22 -23.5
    endloop
  endfacet
  facet normal 0 0 1
    outer loop
      vertex 0 10 0
      vertex 15.25 10 0
      vertex 15.25 14 0
    endloop
  endfacet
  facet normal 0 0 1
    outer loop
      vertex 2 26.6 0
      vertex 0 10 0
      vertex 2 14 0
    endloop
  endfacet
  facet normal 0 -0 1
    outer loop
      vertex 2 14 0
      vertex 0 10 0
      vertex 15.25 14 0
    endloop
  endfacet
  facet normal 0 -0 1
    outer loop
      vertex 0 26.6 0
      vertex 0 10 0
      vertex 2 26.6 0
    endloop
  endfacet
  facet normal 0 -1 0
    outer loop
      vertex 25.6147 10 -14.2658
      vertex 22.75 10 -12.9904
      vertex 3.25 10 -15.5
    endloop
  endfacet
  facet normal -0 -1 0
    outer loop
      vertex 0 10 -23.5
      vertex 0.25 10 -23.5
      vertex 0.25 10 -15.5
    endloop
  endfacet
  facet normal -0 -1 -0
    outer loop
      vertex 3.25 10 -19.5
      vertex 57.25 10 -19.5
      vertex 3.25 10 -15.5
    endloop
  endfacet
  facet normal 0 -1 0
    outer loop
      vertex 0 10 0
      vertex 0 10 -23.5
      vertex 0.25 10 -15.5
    endloop
  endfacet
  facet normal 0 -1 0
    outer loop
      vertex 28.6821 10 -14.9178
      vertex 25.6147 10 -14.2658
      vertex 3.25 10 -15.5
    endloop
  endfacet
  facet normal 0 -1 0
    outer loop
      vertex 57.25 10 -19.5
      vertex 57.25 10 -15.5
      vertex 3.25 10 -15.5
    endloop
  endfacet
  facet normal 0 -1 -0
    outer loop
      vertex 60.25 10 -15.5
      vertex 60.5 10 0
      vertex 57.25 10 -15.5
    endloop
  endfacet
  facet normal 0 -1 0
    outer loop
      vertex 18.1147 10 -8.81678
      vertex 16.5468 10 -6.10105
      vertex 0.25 10 -15.5
    endloop
  endfacet
  facet normal -0 -1 -0
    outer loop
      vertex 60.25 10 -23.5
      vertex 60.5 10 -23.5
      vertex 60.25 10 -15.5
    endloop
  endfacet
  facet normal 0 -1 0
    outer loop
      vertex 60.5 10 -23.5
      vertex 60.5 10 0
      vertex 60.25 10 -15.5
    endloop
  endfacet
  facet normal 0 -7.28015e-17 0
    outer loop
      vertex 60.5 10 0
      vertex 45.25 10 0
      vertex 45.25 10 -1.11022e-15
    endloop
  endfacet
  facet normal 0 -1 0
    outer loop
      vertex 20.213 10 -11.1472
      vertex 18.1147 10 -8.81678
      vertex 0.25 10 -15.5
    endloop
  endfacet
  facet normal 0 -1 0
    outer loop
      vertex 60.5 10 0
      vertex 45.25 10 -1.11022e-15
      vertex 44.9222 10 -3.11868
    endloop
  endfacet
  facet normal 0 -1 -0
    outer loop
      vertex 57.25 10 -15.5
      vertex 60.5 10 0
      vertex 43.9532 10 -6.10105
    endloop
  endfacet
  facet normal 0 -1 0
    outer loop
      vertex 57.25 10 -15.5
      vertex 43.9532 10 -6.10105
      vertex 42.3853 10 -8.81678
    endloop
  endfacet
  facet normal 0 -1 0
    outer loop
      vertex 57.25 10 -15.5
      vertex 42.3853 10 -8.81678
      vertex 40.287 10 -11.1472
    endloop
  endfacet
  facet normal 0 -1 0
    outer loop
      vertex 22.75 10 -12.9904
      vertex 20.213 10 -11.1472
      vertex 3.25 10 -15.5
    endloop
  endfacet
  facet normal 0 -1 0
    outer loop
      vertex 57.25 10 -15.5
      vertex 40.287 10 -11.1472
      vertex 37.75 10 -12.9904
    endloop
  endfacet
  facet normal 0 -1 0
    outer loop
      vertex 57.25 10 -15.5
      vertex 37.75 10 -12.9904
      vertex 34.8853 10 -14.2658
    endloop
  endfacet
  facet normal 0 -1 0
    outer loop
      vertex 57.25 10 -15.5
      vertex 31.8179 10 -14.9178
      vertex 3.25 10 -15.5
    endloop
  endfacet
  facet normal 0 -1 0
    outer loop
      vertex 57.25 10 -15.5
      vertex 34.8853 10 -14.2658
      vertex 31.8179 10 -14.9178
    endloop
  endfacet
  facet normal 0 -1 0
    outer loop
      vertex 31.8179 10 -14.9178
      vertex 28.6821 10 -14.9178
      vertex 3.25 10 -15.5
    endloop
  endfacet
  facet normal 0 -1 0
    outer loop
      vertex 16.5468 10 -6.10105
      vertex 15.5778 10 -3.11868
      vertex 0.25 10 -15.5
    endloop
  endfacet
  facet normal 0 -1 0
    outer loop
      vertex 15.5778 10 -3.11868
      vertex 15.25 10 -1.11022e-15
      vertex 0.25 10 -15.5
    endloop
  endfacet
  facet normal 0 -6.93167e-17 0
    outer loop
      vertex 15.25 10 -1.11022e-15
      vertex 15.25 10 0
      vertex 0.25 10 -15.5
    endloop
  endfacet
  facet normal 0 -1 0
    outer loop
      vertex 15.25 10 0
      vertex 0 10 0
      vertex 0.25 10 -15.5
    endloop
  endfacet
  facet normal 0 -1 0
    outer loop
      vertex 20.213 10 -11.1472
      vertex 0.25 10 -15.5
      vertex 3.25 10 -15.5
    endloop
  endfacet
  facet normal -0 -1 0
    outer loop
      vertex 44.9222 10 -3.11868
      vertex 43.9532 10 -6.10105
      vertex 60.5 10 0
    endloop
  endfacet
  facet normal 0 0 -1
    outer loop
      vertex 0 22 -23.5
      vertex 2 22 -23.5
      vertex 0 10 -23.5
    endloop
  endfacet
  facet normal 0 0 -1
    outer loop
      vertex 0 10 -23.5
      vertex 2 22 -23.5
      vertex 2 14 -23.5
    endloop
  endfacet
  facet normal 0 0 -1
    outer loop
      vertex 0 10 -23.5
      vertex 2 14 -23.5
      vertex 58.5 14 -23.5
    endloop
  endfacet
  facet normal 0 -0 -1
    outer loop
      vertex 58.5 14 -23.5
      vertex 58.5 22 -23.5
      vertex 60.5 22 -23.5
    endloop
  endfacet
  facet normal -0 0 -1
    outer loop
      vertex 58.5 14 -23.5
      vertex 60.5 22 -23.5
      vertex 60.5 10 -23.5
    endloop
  endfacet
  facet normal 0 0 -1
    outer loop
      vertex 58.5 14 -23.5
      vertex 60.5 10 -23.5
      vertex 60.25 10 -23.5
    endloop
  endfacet
  facet normal 0 0 -1
    outer loop
      vertex 58.5 14 -23.5
      vertex 0.25 10 -23.5
      vertex 0 10 -23.5
    endloop
  endfacet
  facet normal 0 0 -1
    outer loop
      vertex 0.25 10 -23.5
      vertex 27.6368 6.86305 -23.5
      vertex 22.5246 5.77641 -23.5
    endloop
  endfacet
  facet normal 0 0 -1
    outer loop
      vertex 60.25 -5 -23.5
      vertex 51.4538 -5 -23.5
      vertex 50.4754 -3.30537 -23.5
    endloop
  endfacet
  facet normal 0 0 -1
    outer loop
      vertex 49.5408 0.129968 -23.5
      vertex 60.25 -5 -23.5
      vertex 46.9783 0.578621 -23.5
    endloop
  endfacet
  facet normal 0 0 -1
    outer loop
      vertex 0.25 10 -23.5
      vertex 17.75 3.65063 -23.5
      vertex 11.3861 3.64597 -23.5
    endloop
  endfacet
  facet normal 0 0 -1
    outer loop
      vertex 48.25 2 -23.5
      vertex 46.9783 0.578621 -23.5
      vertex 42.75 3.65063 -23.5
    endloop
  endfacet
  facet normal 0 0 -1
    outer loop
      vertex 60.25 10 -23.5
      vertex 42.75 3.65063 -23.5
      vertex 37.9754 5.77641 -23.5
    endloop
  endfacet
  facet normal 0 0 -1
    outer loop
      vertex 60.25 10 -23.5
      vertex 37.9754 5.77641 -23.5
      vertex 32.8632 6.86305 -23.5
    endloop
  endfacet
  facet normal 0 0 -1
    outer loop
      vertex 8.75298 0.673755 -23.5
      vertex 10.0246 -3.30537 -23.5
      vertex 8.47909 1.07055 -23.5
    endloop
  endfacet
  facet normal 0 0 -1
    outer loop
      vertex 0.25 10 -23.5
      vertex 32.8632 6.86305 -23.5
      vertex 27.6368 6.86305 -23.5
    endloop
  endfacet
  facet normal 0 0 -1
    outer loop
      vertex 60.25 10 -23.5
      vertex 32.8632 6.86305 -23.5
      vertex 0.25 10 -23.5
    endloop
  endfacet
  facet normal 0 0 -1
    outer loop
      vertex 60.25 10 -23.5
      vertex 0.25 10 -23.5
      vertex 58.5 14 -23.5
    endloop
  endfacet
  facet normal -0 0 -1
    outer loop
      vertex 11.3861 0.354032 -23.5
      vertex 13.5217 0.578621 -23.5
      vertex 10.9592 0.129968 -23.5
    endloop
  endfacet
  facet normal 0 0 -1
    outer loop
      vertex 8.47909 1.07055 -23.5
      vertex 10.0246 -3.30537 -23.5
      vertex 8.30812 1.52137 -23.5
    endloop
  endfacet
  facet normal 0 0 -1
    outer loop
      vertex 9.11387 0.354032 -23.5
      vertex 10.0246 -3.30537 -23.5
      vertex 8.75298 0.673755 -23.5
    endloop
  endfacet
  facet normal 0 0 -1
    outer loop
      vertex 9.54079 0.129968 -23.5
      vertex 10.0246 -3.30537 -23.5
      vertex 9.11387 0.354032 -23.5
    endloop
  endfacet
  facet normal 0 0 -1
    outer loop
      vertex 10.0089 0.014582 -23.5
      vertex 10.0246 -3.30537 -23.5
      vertex 9.54079 0.129968 -23.5
    endloop
  endfacet
  facet normal 0 0 -1
    outer loop
      vertex 10.4911 0.014582 -23.5
      vertex 10.0246 -3.30537 -23.5
      vertex 10.0089 0.014582 -23.5
    endloop
  endfacet
  facet normal 0 0 -1
    outer loop
      vertex 13.5217 0.578621 -23.5
      vertex 10.0246 -3.30537 -23.5
      vertex 10.4911 0.014582 -23.5
    endloop
  endfacet
  facet normal 0 0 -1
    outer loop
      vertex 13.5217 0.578621 -23.5
      vertex 10.4911 0.014582 -23.5
      vertex 10.9592 0.129968 -23.5
    endloop
  endfacet
  facet normal 0 0 -1
    outer loop
      vertex 11.747 0.673755 -23.5
      vertex 13.5217 0.578621 -23.5
      vertex 11.3861 0.354032 -23.5
    endloop
  endfacet
  facet normal 0 0 -1
    outer loop
      vertex 12.0209 1.07055 -23.5
      vertex 13.5217 0.578621 -23.5
      vertex 11.747 0.673755 -23.5
    endloop
  endfacet
  facet normal 0 0 -1
    outer loop
      vertex 12.1919 1.52137 -23.5
      vertex 13.5217 0.578621 -23.5
      vertex 12.0209 1.07055 -23.5
    endloop
  endfacet
  facet normal 0 0 -1
    outer loop
      vertex 17.75 3.65063 -23.5
      vertex 13.5217 0.578621 -23.5
      vertex 12.1919 1.52137 -23.5
    endloop
  endfacet
  facet normal 0 0 -1
    outer loop
      vertex 17.75 3.65063 -23.5
      vertex 12.1919 1.52137 -23.5
      vertex 12.25 2 -23.5
    endloop
  endfacet
  facet normal 0 0 -1
    outer loop
      vertex 17.75 3.65063 -23.5
      vertex 12.25 2 -23.5
      vertex 12.1919 2.47863 -23.5
    endloop
  endfacet
  facet normal 0 0 -1
    outer loop
      vertex 17.75 3.65063 -23.5
      vertex 12.1919 2.47863 -23.5
      vertex 12.0209 2.92945 -23.5
    endloop
  endfacet
  facet normal 0 0 -1
    outer loop
      vertex 17.75 3.65063 -23.5
      vertex 12.0209 2.92945 -23.5
      vertex 11.747 3.32624 -23.5
    endloop
  endfacet
  facet normal 0 0 -1
    outer loop
      vertex 17.75 3.65063 -23.5
      vertex 11.747 3.32624 -23.5
      vertex 11.3861 3.64597 -23.5
    endloop
  endfacet
  facet normal 0 0 -1
    outer loop
      vertex 48.3081 2.47863 -23.5
      vertex 48.25 2 -23.5
      vertex 42.75 3.65063 -23.5
    endloop
  endfacet
  facet normal -0 0 -1
    outer loop
      vertex 52.0209 1.07055 -23.5
      vertex 60.25 10 -23.5
      vertex 51.747 0.673755 -23.5
    endloop
  endfacet
  facet normal 0 0 -1
    outer loop
      vertex 50.0089 0.014582 -23.5
      vertex 60.25 -5 -23.5
      vertex 49.5408 0.129968 -23.5
    endloop
  endfacet
  facet normal 0 0 -1
    outer loop
      vertex 48.3081 1.52137 -23.5
      vertex 48.4791 1.07055 -23.5
      vertex 46.9783 0.578621 -23.5
    endloop
  endfacet
  facet normal 0 0 -1
    outer loop
      vertex 50.9592 0.129968 -23.5
      vertex 60.25 -5 -23.5
      vertex 50.4911 0.014582 -23.5
    endloop
  endfacet
  facet normal 0 0 -1
    outer loop
      vertex 48.4791 1.07055 -23.5
      vertex 48.753 0.673755 -23.5
      vertex 46.9783 0.578621 -23.5
    endloop
  endfacet
  facet normal 0 0 -1
    outer loop
      vertex 50.4911 0.014582 -23.5
      vertex 60.25 -5 -23.5
      vertex 50.0089 0.014582 -23.5
    endloop
  endfacet
  facet normal 0 0 -1
    outer loop
      vertex 48.753 0.673755 -23.5
      vertex 49.1139 0.354032 -23.5
      vertex 46.9783 0.578621 -23.5
    endloop
  endfacet
  facet normal 0 0 -1
    outer loop
      vertex 49.1139 0.354032 -23.5
      vertex 49.5408 0.129968 -23.5
      vertex 46.9783 0.578621 -23.5
    endloop
  endfacet
  facet normal 0 0 -1
    outer loop
      vertex 51.3861 0.354032 -23.5
      vertex 60.25 -5 -23.5
      vertex 50.9592 0.129968 -23.5
    endloop
  endfacet
  facet normal 0 0 -1
    outer loop
      vertex 51.747 0.673755 -23.5
      vertex 60.25 -5 -23.5
      vertex 51.3861 0.354032 -23.5
    endloop
  endfacet
  facet normal 0 0 -1
    outer loop
      vertex 60.25 10 -23.5
      vertex 60.25 -5 -23.5
      vertex 51.747 0.673755 -23.5
    endloop
  endfacet
  facet normal -0 0 -1
    outer loop
      vertex 52.1919 1.52137 -23.5
      vertex 60.25 10 -23.5
      vertex 52.0209 1.07055 -23.5
    endloop
  endfacet
  facet normal -0 0 -1
    outer loop
      vertex 50.9592 3.87003 -23.5
      vertex 60.25 10 -23.5
      vertex 51.3861 3.64597 -23.5
    endloop
  endfacet
  facet normal 0 0 -1
    outer loop
      vertex 60.25 10 -23.5
      vertex 52.1919 1.52137 -23.5
      vertex 52.25 2 -23.5
    endloop
  endfacet
  facet normal 0 0 -1
    outer loop
      vertex 60.25 10 -23.5
      vertex 52.25 2 -23.5
      vertex 52.1919 2.47863 -23.5
    endloop
  endfacet
  facet normal 0 0 -1
    outer loop
      vertex 60.25 10 -23.5
      vertex 52.1919 2.47863 -23.5
      vertex 52.0209 2.92945 -23.5
    endloop
  endfacet
  facet normal 0 0 -1
    outer loop
      vertex 60.25 10 -23.5
      vertex 52.0209 2.92945 -23.5
      vertex 51.747 3.32624 -23.5
    endloop
  endfacet
  facet normal 0 0 -1
    outer loop
      vertex 60.25 10 -23.5
      vertex 51.747 3.32624 -23.5
      vertex 51.3861 3.64597 -23.5
    endloop
  endfacet
  facet normal 0 -0 -1
    outer loop
      vertex 49.5408 3.87003 -23.5
      vertex 42.75 3.65063 -23.5
      vertex 50.0089 3.98542 -23.5
    endloop
  endfacet
  facet normal 0 0 -1
    outer loop
      vertex 60.25 10 -23.5
      vertex 50.9592 3.87003 -23.5
      vertex 50.4911 3.98542 -23.5
    endloop
  endfacet
  facet normal 0 0 -1
    outer loop
      vertex 60.25 10 -23.5
      vertex 50.4911 3.98542 -23.5
      vertex 50.0089 3.98542 -23.5
    endloop
  endfacet
  facet normal 0 0 -1
    outer loop
      vertex 60.25 10 -23.5
      vertex 50.0089 3.98542 -23.5
      vertex 42.75 3.65063 -23.5
    endloop
  endfacet
  facet normal 0 -0 -1
    outer loop
      vertex 49.1139 3.64597 -23.5
      vertex 42.75 3.65063 -23.5
      vertex 49.5408 3.87003 -23.5
    endloop
  endfacet
  facet normal 0 0 -1
    outer loop
      vertex 49.1139 3.64597 -23.5
      vertex 48.753 3.32624 -23.5
      vertex 42.75 3.65063 -23.5
    endloop
  endfacet
  facet normal 0 0 -1
    outer loop
      vertex 48.753 3.32624 -23.5
      vertex 48.4791 2.92945 -23.5
      vertex 42.75 3.65063 -23.5
    endloop
  endfacet
  facet normal 0 0 -1
    outer loop
      vertex 48.4791 2.92945 -23.5
      vertex 48.3081 2.47863 -23.5
      vertex 42.75 3.65063 -23.5
    endloop
  endfacet
  facet normal 0 0 -1
    outer loop
      vertex 46.9783 0.578621 -23.5
      vertex 60.25 -5 -23.5
      vertex 50.4754 -3.30537 -23.5
    endloop
  endfacet
  facet normal 0 0 -1
    outer loop
      vertex 0.25 10 -23.5
      vertex 22.5246 5.77641 -23.5
      vertex 17.75 3.65063 -23.5
    endloop
  endfacet
  facet normal 0 0 -1
    outer loop
      vertex 0.25 10 -23.5
      vertex 11.3861 3.64597 -23.5
      vertex 10.9592 3.87003 -23.5
    endloop
  endfacet
  facet normal -0 -0 -1
    outer loop
      vertex 10.0089 3.98542 -23.5
      vertex 0.25 10 -23.5
      vertex 10.4911 3.98542 -23.5
    endloop
  endfacet
  facet normal 0 -0 -1
    outer loop
      vertex 9.54079 3.87003 -23.5
      vertex 0.25 10 -23.5
      vertex 10.0089 3.98542 -23.5
    endloop
  endfacet
  facet normal 0 -0 -1
    outer loop
      vertex 9.11387 3.64597 -23.5
      vertex 0.25 10 -23.5
      vertex 9.54079 3.87003 -23.5
    endloop
  endfacet
  facet normal -0 -0 -1
    outer loop
      vertex 10.4911 3.98542 -23.5
      vertex 0.25 10 -23.5
      vertex 10.9592 3.87003 -23.5
    endloop
  endfacet
  facet normal 0 -0 -1
    outer loop
      vertex 8.75298 3.32624 -23.5
      vertex 0.25 10 -23.5
      vertex 9.11387 3.64597 -23.5
    endloop
  endfacet
  facet normal 0 0 -1
    outer loop
      vertex 48.3081 1.52137 -23.5
      vertex 46.9783 0.578621 -23.5
      vertex 48.25 2 -23.5
    endloop
  endfacet
  facet normal 0 0 -1
    outer loop
      vertex 0.25 10 -23.5
      vertex 8.75298 3.32624 -23.5
      vertex 8.47909 2.92945 -23.5
    endloop
  endfacet
  facet normal 0 0 -1
    outer loop
      vertex 0.25 10 -23.5
      vertex 8.47909 2.92945 -23.5
      vertex 8.30812 2.47863 -23.5
    endloop
  endfacet
  facet normal 0 0 -1
    outer loop
      vertex 0.25 10 -23.5
      vertex 8.30812 2.47863 -23.5
      vertex 8.25 2 -23.5
    endloop
  endfacet
  facet normal 0 0 -1
    outer loop
      vertex 0.25 10 -23.5
      vertex 8.25 2 -23.5
      vertex 8.30812 1.52137 -23.5
    endloop
  endfacet
  facet normal 0 0 -1
    outer loop
      vertex 0.25 10 -23.5
      vertex 8.30812 1.52137 -23.5
      vertex 10.0246 -3.30537 -23.5
    endloop
  endfacet
  facet normal 0 0 -1
    outer loop
      vertex 0.25 10 -23.5
      vertex 10.0246 -3.30537 -23.5
      vertex 9.04618 -5 -23.5
    endloop
  endfacet
  facet normal 0 0 -1
    outer loop
      vertex 0.25 10 -23.5
      vertex 9.04618 -5 -23.5
      vertex 0.25 -5 -23.5
    endloop
  endfacet
  facet normal 0 0.767077 -0.641555
    outer loop
      vertex 0 26.6 -18
      vertex 2 26.6 -18
      vertex 0 22 -23.5
    endloop
  endfacet
  facet normal 0 0.767077 -0.641555
    outer loop
      vertex 0 22 -23.5
      vertex 2 26.6 -18
      vertex 2 22 -23.5
    endloop
  endfacet
  facet normal 0 1 -0
    outer loop
      vertex 0 26.6 0
      vertex 2 26.6 0
      vertex 0 26.6 -18
    endloop
  endfacet
  facet normal 0 1 0
    outer loop
      vertex 0 26.6 -18
      vertex 2 26.6 0
      vertex 2 26.6 -18
    endloop
  endfacet
  facet normal 1 0 0
    outer loop
      vertex 2 14 -23.5
      vertex 2 22 -23.5
      vertex 2 26.6 -18
    endloop
  endfacet
  facet normal 1 -0 0
    outer loop
      vertex 2 21.2967 -12.8033
      vertex 2 20.1048 -11.25
      vertex 2 14 -23.5
    endloop
  endfacet
  facet normal 1 0 -0
    outer loop
      vertex 2 24.2962 -14.5942
      vertex 2 14 -23.5
      vertex 2 26.6 -18
    endloop
  endfacet
  facet normal 1 0 -0
    outer loop
      vertex 2 14 0
      vertex 2 14 -23.5
      vertex 2 19.1 -7.5
    endloop
  endfacet
  facet normal 1 0 0
    outer loop
      vertex 2 14 0
      vertex 2 19.1 -7.5
      vertex 2 19.3556 -5.55886
    endloop
  endfacet
  facet normal 1 0 0
    outer loop
      vertex 2 14 0
      vertex 2 19.3556 -5.55886
      vertex 2 20.1048 -3.75
    endloop
  endfacet
  facet normal 1 0 0
    outer loop
      vertex 2 14 0
      vertex 2 21.2967 -2.1967
      vertex 2 26.6 0
    endloop
  endfacet
  facet normal 1 0 0
    outer loop
      vertex 2 14 0
      vertex 2 20.1048 -3.75
      vertex 2 21.2967 -2.1967
    endloop
  endfacet
  facet normal 1 0 0
    outer loop
      vertex 2 26.6 0
      vertex 2 24.2962 -5.19615
      vertex 2 26.6 -18
    endloop
  endfacet
  facet normal 1 0 -0
    outer loop
      vertex 2 24.2962 -5.19615
      vertex 2 24.2962 -14.5942
      vertex 2 26.6 -18
    endloop
  endfacet
  facet normal 1 0 -0
    outer loop
      vertex 2 22.85 -13.9952
      vertex 2 14 -23.5
      vertex 2 24.2962 -14.5942
    endloop
  endfacet
  facet normal 1 0 -0
    outer loop
      vertex 2 21.2967 -12.8033
      vertex 2 14 -23.5
      vertex 2 22.85 -13.9952
    endloop
  endfacet
  facet normal 1 0 -0
    outer loop
      vertex 2 19.3556 -9.44114
      vertex 2 14 -23.5
      vertex 2 20.1048 -11.25
    endloop
  endfacet
  facet normal 1 0 -0
    outer loop
      vertex 2 19.1 -7.5
      vertex 2 14 -23.5
      vertex 2 19.3556 -9.44114
    endloop
  endfacet
  facet normal 1 0 0
    outer loop
      vertex 2 21.2967 -2.1967
      vertex 2 24.2962 -5.19615
      vertex 2 26.6 0
    endloop
  endfacet
  facet normal 0 1 -0
    outer loop
      vertex 2 14 0
      vertex 15.25 14 0
      vertex 2 14 -23.5
    endloop
  endfacet
  facet normal 0 0 0
    outer loop
      vertex 2 14 -23.5
      vertex 15.25 14 0
      vertex 15.25 14 -2.22045e-16
    endloop
  endfacet
  facet normal 0 1 0
    outer loop
      vertex 2 14 -23.5
      vertex 15.25 14 -2.22045e-16
      vertex 15.5778 14 -3.11867
    endloop
  endfacet
  facet normal 0 1 -0
    outer loop
      vertex 15.5778 14 -3.11867
      vertex 16.5468 14 -6.10105
      vertex 2 14 -23.5
    endloop
  endfacet
  facet normal 0 1 -0
    outer loop
      vertex 16.5468 14 -6.10105
      vertex 18.1147 14 -8.81678
      vertex 2 14 -23.5
    endloop
  endfacet
  facet normal 0 1 -0
    outer loop
      vertex 18.1147 14 -8.81678
      vertex 20.213 14 -11.1472
      vertex 2 14 -23.5
    endloop
  endfacet
  facet normal 0 1 -0
    outer loop
      vertex 20.213 14 -11.1472
      vertex 22.75 14 -12.9904
      vertex 2 14 -23.5
    endloop
  endfacet
  facet normal 0 1 -0
    outer loop
      vertex 22.75 14 -12.9904
      vertex 25.6147 14 -14.2658
      vertex 2 14 -23.5
    endloop
  endfacet
  facet normal 0 1 -0
    outer loop
      vertex 25.6147 14 -14.2658
      vertex 28.6821 14 -14.9178
      vertex 2 14 -23.5
    endloop
  endfacet
  facet normal 0 1 -0
    outer loop
      vertex 28.6821 14 -14.9178
      vertex 31.8179 14 -14.9178
      vertex 2 14 -23.5
    endloop
  endfacet
  facet normal 0 1 -0
    outer loop
      vertex 31.8179 14 -14.9178
      vertex 34.8853 14 -14.2658
      vertex 2 14 -23.5
    endloop
  endfacet
  facet normal 0 1 -0
    outer loop
      vertex 34.8853 14 -14.2658
      vertex 58.5 14 -23.5
      vertex 2 14 -23.5
    endloop
  endfacet
  facet normal 0 1 -0
    outer loop
      vertex 40.287 14 -11.1472
      vertex 58.5 14 0
      vertex 37.75 14 -12.9904
    endloop
  endfacet
  facet normal 0 1 -0
    outer loop
      vertex 42.3853 14 -8.81678
      vertex 58.5 14 0
      vertex 40.287 14 -11.1472
    endloop
  endfacet
  facet normal 0 1 -0
    outer loop
      vertex 43.9532 14 -6.10105
      vertex 58.5 14 0
      vertex 42.3853 14 -8.81678
    endloop
  endfacet
  facet normal 0 1 -0
    outer loop
      vertex 44.9222 14 -3.11867
      vertex 58.5 14 0
      vertex 43.9532 14 -6.10105
    endloop
  endfacet
  facet normal 0 1.67581e-17 0
    outer loop
      vertex 45.25 14 -2.22045e-16
      vertex 45.25 14 0
      vertex 58.5 14 0
    endloop
  endfacet
  facet normal 0 1 -0
    outer loop
      vertex 45.25 14 -2.22045e-16
      vertex 58.5 14 0
      vertex 44.9222 14 -3.11867
    endloop
  endfacet
  facet normal 0 1 0
    outer loop
      vertex 37.75 14 -12.9904
      vertex 58.5 14 0
      vertex 58.5 14 -23.5
    endloop
  endfacet
  facet normal 0 1 -0
    outer loop
      vertex 37.75 14 -12.9904
      vertex 58.5 14 -23.5
      vertex 34.8853 14 -14.2658
    endloop
  endfacet
  facet normal 5.55112e-17 0 0
    outer loop
      vertex 15.25 10 -1.11022e-15
      vertex 15.25 14 -2.22045e-16
      vertex 15.25 14 0
    endloop
  endfacet
  facet normal 2.77556e-16 0 -0
    outer loop
      vertex 15.25 10 0
      vertex 15.25 10 -1.11022e-15
      vertex 15.25 14 0
    endloop
  endfacet
  facet normal 0.994522 -1.77021e-17 0.104528
    outer loop
      vertex 15.25 10 -1.11022e-15
      vertex 15.5778 10 -3.11868
      vertex 15.5778 14 -3.11867
    endloop
  endfacet
  facet normal 0.994522 -2.321e-17 0.104528
    outer loop
      vertex 15.25 14 -2.22045e-16
      vertex 15.25 10 -1.11022e-15
      vertex 15.5778 14 -3.11867
    endloop
  endfacet
  facet normal 0.951057 -3.54042e-17 0.309017
    outer loop
      vertex 15.5778 10 -3.11868
      vertex 16.5468 10 -6.10105
      vertex 16.5468 14 -6.10105
    endloop
  endfacet
  facet normal 0.951057 -6.86155e-17 0.309017
    outer loop
      vertex 15.5778 14 -3.11867
      vertex 15.5778 10 -3.11868
      vertex 16.5468 14 -6.10105
    endloop
  endfacet
  facet normal 0.866025 0 0.5
    outer loop
      vertex 16.5468 10 -6.10105
      vertex 18.1147 10 -8.81678
      vertex 18.1147 14 -8.81678
    endloop
  endfacet
  facet normal 0.866025 -1.11022e-16 0.5
    outer loop
      vertex 16.5468 14 -6.10105
      vertex 16.5468 10 -6.10105
      vertex 18.1147 14 -8.81678
    endloop
  endfacet
  facet normal 0.743145 0 0.669131
    outer loop
      vertex 18.1147 10 -8.81678
      vertex 20.213 10 -11.1472
      vertex 20.213 14 -11.1472
    endloop
  endfacet
  facet normal 0.743145 -0 0.669131
    outer loop
      vertex 18.1147 14 -8.81678
      vertex 18.1147 10 -8.81678
      vertex 20.213 14 -11.1472
    endloop
  endfacet
  facet normal 0.587785 0 0.809017
    outer loop
      vertex 20.213 10 -11.1472
      vertex 22.75 10 -12.9904
      vertex 22.75 14 -12.9904
    endloop
  endfacet
  facet normal 0.587785 -0 0.809017
    outer loop
      vertex 20.213 14 -11.1472
      vertex 20.213 10 -11.1472
      vertex 22.75 14 -12.9904
    endloop
  endfacet
  facet normal 0.406737 0 0.913545
    outer loop
      vertex 22.75 10 -12.9904
      vertex 25.6147 10 -14.2658
      vertex 25.6147 14 -14.2658
    endloop
  endfacet
  facet normal 0.406737 -0 0.913545
    outer loop
      vertex 22.75 14 -12.9904
      vertex 22.75 10 -12.9904
      vertex 25.6147 14 -14.2658
    endloop
  endfacet
  facet normal 0.207911 0 0.978148
    outer loop
      vertex 25.6147 10 -14.2658
      vertex 28.6821 10 -14.9178
      vertex 28.6821 14 -14.9178
    endloop
  endfacet
  facet normal 0.207911 -0 0.978148
    outer loop
      vertex 25.6147 14 -14.2658
      vertex 25.6147 10 -14.2658
      vertex 28.6821 14 -14.9178
    endloop
  endfacet
  facet normal 0 0 1
    outer loop
      vertex 28.6821 10 -14.9178
      vertex 31.8179 10 -14.9178
      vertex 31.8179 14 -14.9178
    endloop
  endfacet
  facet normal 0 -0 1
    outer loop
      vertex 28.6821 14 -14.9178
      vertex 28.6821 10 -14.9178
      vertex 31.8179 14 -14.9178
    endloop
  endfacet
  facet normal -0.207911 0 0.978148
    outer loop
      vertex 31.8179 10 -14.9178
      vertex 34.8853 10 -14.2658
      vertex 34.8853 14 -14.2658
    endloop
  endfacet
  facet normal -0.207911 0 0.978148
    outer loop
      vertex 31.8179 14 -14.9178
      vertex 31.8179 10 -14.9178
      vertex 34.8853 14 -14.2658
    endloop
  endfacet
  facet normal -0.406737 0 0.913545
    outer loop
      vertex 34.8853 10 -14.2658
      vertex 37.75 10 -12.9904
      vertex 37.75 14 -12.9904
    endloop
  endfacet
  facet normal -0.406737 0 0.913545
    outer loop
      vertex 34.8853 14 -14.2658
      vertex 34.8853 10 -14.2658
      vertex 37.75 14 -12.9904
    endloop
  endfacet
  facet normal -0.587785 0 0.809017
    outer loop
      vertex 37.75 10 -12.9904
      vertex 40.287 10 -11.1472
      vertex 40.287 14 -11.1472
    endloop
  endfacet
  facet normal -0.587785 0 0.809017
    outer loop
      vertex 37.75 14 -12.9904
      vertex 37.75 10 -12.9904
      vertex 40.287 14 -11.1472
    endloop
  endfacet
  facet normal -0.743145 0 0.669131
    outer loop
      vertex 42.3853 10 -8.81678
      vertex 42.3853 14 -8.81678
      vertex 40.287 10 -11.1472
    endloop
  endfacet
  facet normal -0.743145 0 0.669131
    outer loop
      vertex 40.287 10 -11.1472
      vertex 42.3853 14 -8.81678
      vertex 40.287 14 -11.1472
    endloop
  endfacet
  facet normal -0.866025 -1.11022e-16 0.5
    outer loop
      vertex 43.9532 10 -6.10105
      vertex 43.9532 14 -6.10105
      vertex 42.3853 10 -8.81678
    endloop
  endfacet
  facet normal -0.866025 0 0.5
    outer loop
      vertex 42.3853 10 -8.81678
      vertex 43.9532 14 -6.10105
      vertex 42.3853 14 -8.81678
    endloop
  endfacet
  facet normal -0.951057 -6.86155e-17 0.309017
    outer loop
      vertex 44.9222 10 -3.11868
      vertex 44.9222 14 -3.11867
      vertex 43.9532 10 -6.10105
    endloop
  endfacet
  facet normal -0.951057 -6.86155e-17 0.309017
    outer loop
      vertex 43.9532 10 -6.10105
      vertex 44.9222 14 -3.11867
      vertex 43.9532 14 -6.10105
    endloop
  endfacet
  facet normal -0.994522 -2.321e-17 0.104528
    outer loop
      vertex 45.25 10 -1.11022e-15
      vertex 45.25 14 -2.22045e-16
      vertex 44.9222 10 -3.11868
    endloop
  endfacet
  facet normal -0.994522 -2.321e-17 0.104528
    outer loop
      vertex 44.9222 10 -3.11868
      vertex 45.25 14 -2.22045e-16
      vertex 44.9222 14 -3.11867
    endloop
  endfacet
  facet normal -5.55112e-17 0 -1.77636e-15
    outer loop
      vertex 45.25 14 0
      vertex 45.25 14 -2.22045e-16
      vertex 45.25 10 0
    endloop
  endfacet
  facet normal -2.77556e-16 3.9443e-31 -1.77636e-15
    outer loop
      vertex 45.25 10 0
      vertex 45.25 14 -2.22045e-16
      vertex 45.25 10 -1.11022e-15
    endloop
  endfacet
  facet normal 0 0 1
    outer loop
      vertex 58.5 14 0
      vertex 60.5 10 0
      vertex 60.5 26.6 0
    endloop
  endfacet
  facet normal 0 0 1
    outer loop
      vertex 58.5 14 0
      vertex 45.25 14 0
      vertex 45.25 10 0
    endloop
  endfacet
  facet normal 0 0 1
    outer loop
      vertex 45.25 10 0
      vertex 60.5 10 0
      vertex 58.5 14 0
    endloop
  endfacet
  facet normal 0 -0 1
    outer loop
      vertex 58.5 26.6 0
      vertex 58.5 14 0
      vertex 60.5 26.6 0
    endloop
  endfacet
  facet normal 1 0 0
    outer loop
      vertex 60.5 10 -23.5
      vertex 60.5 22 -23.5
      vertex 60.5 26.6 -18
    endloop
  endfacet
  facet normal 1 0 -0
    outer loop
      vertex 60.5 10 0
      vertex 60.5 10 -23.5
      vertex 60.5 26.6 0
    endloop
  endfacet
  facet normal 1 0 0
    outer loop
      vertex 60.5 26.6 0
      vertex 60.5 10 -23.5
      vertex 60.5 26.6 -18
    endloop
  endfacet
  facet normal 1 0 0
    outer loop
      vertex 60.25 -5 -23.5
      vertex 60.25 10 -23.5
      vertex 60.25 10 -15.5
    endloop
  endfacet
  facet normal 1 0 -0
    outer loop
      vertex 60.25 -5 -19.5
      vertex 60.25 -5 -23.5
      vertex 60.25 9 -15.5
    endloop
  endfacet
  facet normal 1 0 -0
    outer loop
      vertex 60.25 9 -15.5
      vertex 60.25 -5 -23.5
      vertex 60.25 10 -15.5
    endloop
  endfacet
  facet normal 0 0 1
    outer loop
      vertex 57.25 9 -15.5
      vertex 60.25 9 -15.5
      vertex 60.25 10 -15.5
    endloop
  endfacet
  facet normal 0 -0 1
    outer loop
      vertex 57.25 10 -15.5
      vertex 57.25 9 -15.5
      vertex 60.25 10 -15.5
    endloop
  endfacet
  facet normal -1 0 0
    outer loop
      vertex 57.25 9 -15.5
      vertex 57.25 10 -15.5
      vertex 57.25 -5 -19.5
    endloop
  endfacet
  facet normal -1 -0 0
    outer loop
      vertex 57.25 -5 -19.5
      vertex 57.25 10 -15.5
      vertex 57.25 10 -19.5
    endloop
  endfacet
  facet normal -0 0 1
    outer loop
      vertex 8.25 2 -19.5
      vertex 3.25 10 -19.5
      vertex 3.25 -5 -19.5
    endloop
  endfacet
  facet normal 0 0 1
    outer loop
      vertex 3.25 -5 -19.5
      vertex 9.04618 -5 -19.5
      vertex 10.0246 -3.30537 -19.5
    endloop
  endfacet
  facet normal -0 0 1
    outer loop
      vertex 22.5246 5.77641 -19.5
      vertex 3.25 10 -19.5
      vertex 17.75 3.65063 -19.5
    endloop
  endfacet
  facet normal 0 0 1
    outer loop
      vertex 13.5217 0.578621 -19.5
      vertex 3.25 -5 -19.5
      vertex 10.0246 -3.30537 -19.5
    endloop
  endfacet
  facet normal -0 0 1
    outer loop
      vertex 13.5217 0.578621 -19.5
      vertex 17.75 3.65063 -19.5
      vertex 3.25 -5 -19.5
    endloop
  endfacet
  facet normal -0 0 1
    outer loop
      vertex 27.6368 6.86305 -19.5
      vertex 3.25 10 -19.5
      vertex 22.5246 5.77641 -19.5
    endloop
  endfacet
  facet normal -0 0 1
    outer loop
      vertex 32.8632 6.86305 -19.5
      vertex 57.25 10 -19.5
      vertex 27.6368 6.86305 -19.5
    endloop
  endfacet
  facet normal 0 0 1
    outer loop
      vertex 37.9754 5.77641 -19.5
      vertex 57.25 10 -19.5
      vertex 32.8632 6.86305 -19.5
    endloop
  endfacet
  facet normal 0 0 1
    outer loop
      vertex 42.75 3.65063 -19.5
      vertex 57.25 10 -19.5
      vertex 37.9754 5.77641 -19.5
    endloop
  endfacet
  facet normal 0 0 1
    outer loop
      vertex 46.9783 0.578621 -19.5
      vertex 57.25 -5 -19.5
      vertex 42.75 3.65063 -19.5
    endloop
  endfacet
  facet normal 0 0 1
    outer loop
      vertex 50.4754 -3.30537 -19.5
      vertex 57.25 -5 -19.5
      vertex 46.9783 0.578621 -19.5
    endloop
  endfacet
  facet normal 0 0 1
    outer loop
      vertex 51.4538 -5 -19.5
      vertex 57.25 -5 -19.5
      vertex 50.4754 -3.30537 -19.5
    endloop
  endfacet
  facet normal 0 0 1
    outer loop
      vertex 49.1139 3.64597 -19.5
      vertex 57.25 10 -19.5
      vertex 42.75 3.65063 -19.5
    endloop
  endfacet
  facet normal 0 0 1
    outer loop
      vertex 57.25 10 -19.5
      vertex 3.25 10 -19.5
      vertex 27.6368 6.86305 -19.5
    endloop
  endfacet
  facet normal -0 0 1
    outer loop
      vertex 8.30812 1.52137 -19.5
      vertex 8.25 2 -19.5
      vertex 3.25 -5 -19.5
    endloop
  endfacet
  facet normal -0 0 1
    outer loop
      vertex 8.30812 2.47863 -19.5
      vertex 3.25 10 -19.5
      vertex 8.25 2 -19.5
    endloop
  endfacet
  facet normal -0 0 1
    outer loop
      vertex 8.47909 2.92945 -19.5
      vertex 3.25 10 -19.5
      vertex 8.30812 2.47863 -19.5
    endloop
  endfacet
  facet normal 0 0 1
    outer loop
      vertex 12.0209 2.92945 -19.5
      vertex 12.1919 2.47863 -19.5
      vertex 17.75 3.65063 -19.5
    endloop
  endfacet
  facet normal -0 0 1
    outer loop
      vertex 8.75298 3.32624 -19.5
      vertex 3.25 10 -19.5
      vertex 8.47909 2.92945 -19.5
    endloop
  endfacet
  facet normal -0 0 1
    outer loop
      vertex 9.11387 3.64597 -19.5
      vertex 3.25 10 -19.5
      vertex 8.75298 3.32624 -19.5
    endloop
  endfacet
  facet normal -0 0 1
    outer loop
      vertex 9.54079 3.87003 -19.5
      vertex 3.25 10 -19.5
      vertex 9.11387 3.64597 -19.5
    endloop
  endfacet
  facet normal 0 0 1
    outer loop
      vertex 11.3861 3.64597 -19.5
      vertex 11.747 3.32624 -19.5
      vertex 17.75 3.65063 -19.5
    endloop
  endfacet
  facet normal -0 0 1
    outer loop
      vertex 10.0089 3.98542 -19.5
      vertex 3.25 10 -19.5
      vertex 9.54079 3.87003 -19.5
    endloop
  endfacet
  facet normal -0 0 1
    outer loop
      vertex 10.4911 3.98542 -19.5
      vertex 3.25 10 -19.5
      vertex 10.0089 3.98542 -19.5
    endloop
  endfacet
  facet normal 0 0 1
    outer loop
      vertex 17.75 3.65063 -19.5
      vertex 3.25 10 -19.5
      vertex 10.4911 3.98542 -19.5
    endloop
  endfacet
  facet normal 0 0 1
    outer loop
      vertex 11.747 3.32624 -19.5
      vertex 12.0209 2.92945 -19.5
      vertex 17.75 3.65063 -19.5
    endloop
  endfacet
  facet normal 0 0 1
    outer loop
      vertex 10.9592 0.129968 -19.5
      vertex 10.4911 0.014582 -19.5
      vertex 3.25 -5 -19.5
    endloop
  endfacet
  facet normal 0 0 1
    outer loop
      vertex 49.1139 3.64597 -19.5
      vertex 49.5408 3.87003 -19.5
      vertex 57.25 10 -19.5
    endloop
  endfacet
  facet normal -0 0 1
    outer loop
      vertex 9.54079 0.129968 -19.5
      vertex 9.11387 0.354032 -19.5
      vertex 3.25 -5 -19.5
    endloop
  endfacet
  facet normal 0 0 1
    outer loop
      vertex 17.75 3.65063 -19.5
      vertex 12.1919 2.47863 -19.5
      vertex 12.25 2 -19.5
    endloop
  endfacet
  facet normal -0 0 1
    outer loop
      vertex 10.0089 0.014582 -19.5
      vertex 9.54079 0.129968 -19.5
      vertex 3.25 -5 -19.5
    endloop
  endfacet
  facet normal 0 0 1
    outer loop
      vertex 17.75 3.65063 -19.5
      vertex 12.25 2 -19.5
      vertex 12.1919 1.52137 -19.5
    endloop
  endfacet
  facet normal 0 0 1
    outer loop
      vertex 10.4911 0.014582 -19.5
      vertex 10.0089 0.014582 -19.5
      vertex 3.25 -5 -19.5
    endloop
  endfacet
  facet normal 0 0 1
    outer loop
      vertex 17.75 3.65063 -19.5
      vertex 12.1919 1.52137 -19.5
      vertex 12.0209 1.07055 -19.5
    endloop
  endfacet
  facet normal 0 0 1
    outer loop
      vertex 50.0089 3.98542 -19.5
      vertex 50.4911 3.98542 -19.5
      vertex 57.25 10 -19.5
    endloop
  endfacet
  facet normal 0 0 1
    outer loop
      vertex 17.75 3.65063 -19.5
      vertex 12.0209 1.07055 -19.5
      vertex 11.747 0.673755 -19.5
    endloop
  endfacet
  facet normal 0 0 1
    outer loop
      vertex 17.75 3.65063 -19.5
      vertex 11.3861 0.354032 -19.5
      vertex 3.25 -5 -19.5
    endloop
  endfacet
  facet normal 0 0 1
    outer loop
      vertex 17.75 3.65063 -19.5
      vertex 11.747 0.673755 -19.5
      vertex 11.3861 0.354032 -19.5
    endloop
  endfacet
  facet normal 0 0 1
    outer loop
      vertex 11.3861 0.354032 -19.5
      vertex 10.9592 0.129968 -19.5
      vertex 3.25 -5 -19.5
    endloop
  endfacet
  facet normal -0 0 1
    outer loop
      vertex 9.11387 0.354032 -19.5
      vertex 8.75298 0.673755 -19.5
      vertex 3.25 -5 -19.5
    endloop
  endfacet
  facet normal -0 0 1
    outer loop
      vertex 8.75298 0.673755 -19.5
      vertex 8.47909 1.07055 -19.5
      vertex 3.25 -5 -19.5
    endloop
  endfacet
  facet normal -0 0 1
    outer loop
      vertex 8.47909 1.07055 -19.5
      vertex 8.30812 1.52137 -19.5
      vertex 3.25 -5 -19.5
    endloop
  endfacet
  facet normal 0 0 1
    outer loop
      vertex 48.3081 1.52137 -19.5
      vertex 48.25 2 -19.5
      vertex 42.75 3.65063 -19.5
    endloop
  endfacet
  facet normal 0 0 1
    outer loop
      vertex 48.25 2 -19.5
      vertex 48.3081 2.47863 -19.5
      vertex 42.75 3.65063 -19.5
    endloop
  endfacet
  facet normal 0 0 1
    outer loop
      vertex 52.0209 2.92945 -19.5
      vertex 52.1919 2.47863 -19.5
      vertex 57.25 -5 -19.5
    endloop
  endfacet
  facet normal 0 0 1
    outer loop
      vertex 48.3081 2.47863 -19.5
      vertex 48.4791 2.92945 -19.5
      vertex 42.75 3.65063 -19.5
    endloop
  endfacet
  facet normal 0 0 1
    outer loop
      vertex 48.4791 2.92945 -19.5
      vertex 48.753 3.32624 -19.5
      vertex 42.75 3.65063 -19.5
    endloop
  endfacet
  facet normal 0 0 1
    outer loop
      vertex 48.753 3.32624 -19.5
      vertex 49.1139 3.64597 -19.5
      vertex 42.75 3.65063 -19.5
    endloop
  endfacet
  facet normal 0 0 1
    outer loop
      vertex 49.5408 3.87003 -19.5
      vertex 50.0089 3.98542 -19.5
      vertex 57.25 10 -19.5
    endloop
  endfacet
  facet normal 0 0 1
    outer loop
      vertex 52.1919 2.47863 -19.5
      vertex 52.25 2 -19.5
      vertex 57.25 -5 -19.5
    endloop
  endfacet
  facet normal 0 0 1
    outer loop
      vertex 50.9592 3.87003 -19.5
      vertex 57.25 10 -19.5
      vertex 50.4911 3.98542 -19.5
    endloop
  endfacet
  facet normal 0 0 1
    outer loop
      vertex 51.3861 3.64597 -19.5
      vertex 57.25 10 -19.5
      vertex 50.9592 3.87003 -19.5
    endloop
  endfacet
  facet normal 0 -0 1
    outer loop
      vertex 52.25 2 -19.5
      vertex 52.1919 1.52137 -19.5
      vertex 57.25 -5 -19.5
    endloop
  endfacet
  facet normal 0 0 1
    outer loop
      vertex 51.747 3.32624 -19.5
      vertex 57.25 10 -19.5
      vertex 51.3861 3.64597 -19.5
    endloop
  endfacet
  facet normal 0 0 1
    outer loop
      vertex 52.0209 2.92945 -19.5
      vertex 57.25 10 -19.5
      vertex 51.747 3.32624 -19.5
    endloop
  endfacet
  facet normal 0 0 1
    outer loop
      vertex 57.25 -5 -19.5
      vertex 57.25 10 -19.5
      vertex 52.0209 2.92945 -19.5
    endloop
  endfacet
  facet normal 0 -0 1
    outer loop
      vertex 50.9592 0.129968 -19.5
      vertex 50.4911 0.014582 -19.5
      vertex 57.25 -5 -19.5
    endloop
  endfacet
  facet normal 0 0 1
    outer loop
      vertex 57.25 -5 -19.5
      vertex 52.1919 1.52137 -19.5
      vertex 52.0209 1.07055 -19.5
    endloop
  endfacet
  facet normal 0 0 1
    outer loop
      vertex 57.25 -5 -19.5
      vertex 52.0209 1.07055 -19.5
      vertex 51.747 0.673755 -19.5
    endloop
  endfacet
  facet normal 0 0 1
    outer loop
      vertex 57.25 -5 -19.5
      vertex 51.747 0.673755 -19.5
      vertex 51.3861 0.354032 -19.5
    endloop
  endfacet
  facet normal 0 0 1
    outer loop
      vertex 49.1139 0.354032 -19.5
      vertex 48.753 0.673755 -19.5
      vertex 42.75 3.65063 -19.5
    endloop
  endfacet
  facet normal 0 0 1
    outer loop
      vertex 57.25 -5 -19.5
      vertex 51.3861 0.354032 -19.5
      vertex 50.9592 0.129968 -19.5
    endloop
  endfacet
  facet normal 0 0 1
    outer loop
      vertex 48.753 0.673755 -19.5
      vertex 48.4791 1.07055 -19.5
      vertex 42.75 3.65063 -19.5
    endloop
  endfacet
  facet normal 0 0 1
    outer loop
      vertex 57.25 -5 -19.5
      vertex 50.4911 0.014582 -19.5
      vertex 50.0089 0.014582 -19.5
    endloop
  endfacet
  facet normal 0 0 1
    outer loop
      vertex 57.25 -5 -19.5
      vertex 49.5408 0.129968 -19.5
      vertex 42.75 3.65063 -19.5
    endloop
  endfacet
  facet normal 0 0 1
    outer loop
      vertex 57.25 -5 -19.5
      vertex 50.0089 0.014582 -19.5
      vertex 49.5408 0.129968 -19.5
    endloop
  endfacet
  facet normal 0 0 1
    outer loop
      vertex 49.5408 0.129968 -19.5
      vertex 49.1139 0.354032 -19.5
      vertex 42.75 3.65063 -19.5
    endloop
  endfacet
  facet normal 0 0 1
    outer loop
      vertex 48.4791 1.07055 -19.5
      vertex 48.3081 1.52137 -19.5
      vertex 42.75 3.65063 -19.5
    endloop
  endfacet
  facet normal 0 0 1
    outer loop
      vertex 10.4911 3.98542 -19.5
      vertex 10.9592 3.87003 -19.5
      vertex 17.75 3.65063 -19.5
    endloop
  endfacet
  facet normal 0 0 1
    outer loop
      vertex 10.9592 3.87003 -19.5
      vertex 11.3861 3.64597 -19.5
      vertex 17.75 3.65063 -19.5
    endloop
  endfacet
  facet normal 1 0 0
    outer loop
      vertex 3.25 -5 -19.5
      vertex 3.25 10 -19.5
      vertex 3.25 10 -15.5
    endloop
  endfacet
  facet normal 1 0 -0
    outer loop
      vertex 3.25 9 -15.5
      vertex 3.25 -5 -19.5
      vertex 3.25 10 -15.5
    endloop
  endfacet
  facet normal 0 0 1
    outer loop
      vertex 0.25 9 -15.5
      vertex 3.25 9 -15.5
      vertex 3.25 10 -15.5
    endloop
  endfacet
  facet normal 0 -0 1
    outer loop
      vertex 0.25 10 -15.5
      vertex 0.25 9 -15.5
      vertex 3.25 10 -15.5
    endloop
  endfacet
  facet normal -1 -0 0
    outer loop
      vertex 0.25 -5 -19.5
      vertex 0.25 9 -15.5
      vertex 0.25 -5 -23.5
    endloop
  endfacet
  facet normal -1 0 0
    outer loop
      vertex 0.25 -5 -23.5
      vertex 0.25 9 -15.5
      vertex 0.25 10 -15.5
    endloop
  endfacet
  facet normal -1 -0 0
    outer loop
      vertex 0.25 -5 -23.5
      vertex 0.25 10 -15.5
      vertex 0.25 10 -23.5
    endloop
  endfacet
  facet normal -0 -1 0
    outer loop
      vertex 0.25 -5 -23.5
      vertex 9.04618 -5 -23.5
      vertex 9.04618 -5 -19.5
    endloop
  endfacet
  facet normal 0 -1 0
    outer loop
      vertex 0.25 -5 -19.5
      vertex 0.25 -5 -23.5
      vertex 3.25 -5 -19.5
    endloop
  endfacet
  facet normal 0 -1 0
    outer loop
      vertex 3.25 -5 -19.5
      vertex 0.25 -5 -23.5
      vertex 9.04618 -5 -19.5
    endloop
  endfacet
  facet normal 0.866025 -0.5 0
    outer loop
      vertex 9.04618 -5 -23.5
      vertex 10.0246 -3.30537 -23.5
      vertex 10.0246 -3.30537 -19.5
    endloop
  endfacet
  facet normal 0.866025 -0.5 0
    outer loop
      vertex 9.04618 -5 -19.5
      vertex 9.04618 -5 -23.5
      vertex 10.0246 -3.30537 -19.5
    endloop
  endfacet
  facet normal 0.743145 -0.669131 0
    outer loop
      vertex 10.0246 -3.30537 -23.5
      vertex 13.5217 0.578621 -23.5
      vertex 13.5217 0.578621 -19.5
    endloop
  endfacet
  facet normal 0.743145 -0.669131 0
    outer loop
      vertex 10.0246 -3.30537 -19.5
      vertex 10.0246 -3.30537 -23.5
      vertex 13.5217 0.578621 -19.5
    endloop
  endfacet
  facet normal 0.587785 -0.809017 0
    outer loop
      vertex 13.5217 0.578621 -23.5
      vertex 17.75 3.65063 -23.5
      vertex 17.75 3.65063 -19.5
    endloop
  endfacet
  facet normal 0.587785 -0.809017 0
    outer loop
      vertex 13.5217 0.578621 -19.5
      vertex 13.5217 0.578621 -23.5
      vertex 17.75 3.65063 -19.5
    endloop
  endfacet
  facet normal 0.406737 -0.913545 0
    outer loop
      vertex 17.75 3.65063 -23.5
      vertex 22.5246 5.77641 -23.5
      vertex 22.5246 5.77641 -19.5
    endloop
  endfacet
  facet normal 0.406737 -0.913545 0
    outer loop
      vertex 17.75 3.65063 -19.5
      vertex 17.75 3.65063 -23.5
      vertex 22.5246 5.77641 -19.5
    endloop
  endfacet
  facet normal 0.207912 -0.978148 0
    outer loop
      vertex 22.5246 5.77641 -23.5
      vertex 27.6368 6.86305 -23.5
      vertex 27.6368 6.86305 -19.5
    endloop
  endfacet
  facet normal 0.207912 -0.978148 0
    outer loop
      vertex 22.5246 5.77641 -19.5
      vertex 22.5246 5.77641 -23.5
      vertex 27.6368 6.86305 -19.5
    endloop
  endfacet
  facet normal -0 -1 0
    outer loop
      vertex 27.6368 6.86305 -23.5
      vertex 32.8632 6.86305 -23.5
      vertex 32.8632 6.86305 -19.5
    endloop
  endfacet
  facet normal 0 -1 0
    outer loop
      vertex 27.6368 6.86305 -19.5
      vertex 27.6368 6.86305 -23.5
      vertex 32.8632 6.86305 -19.5
    endloop
  endfacet
  facet normal -0.207912 -0.978148 0
    outer loop
      vertex 32.8632 6.86305 -23.5
      vertex 37.9754 5.77641 -23.5
      vertex 37.9754 5.77641 -19.5
    endloop
  endfacet
  facet normal -0.207912 -0.978148 0
    outer loop
      vertex 32.8632 6.86305 -19.5
      vertex 32.8632 6.86305 -23.5
      vertex 37.9754 5.77641 -19.5
    endloop
  endfacet
  facet normal -0.406737 -0.913545 0
    outer loop
      vertex 37.9754 5.77641 -23.5
      vertex 42.75 3.65063 -23.5
      vertex 42.75 3.65063 -19.5
    endloop
  endfacet
  facet normal -0.406737 -0.913545 0
    outer loop
      vertex 37.9754 5.77641 -19.5
      vertex 37.9754 5.77641 -23.5
      vertex 42.75 3.65063 -19.5
    endloop
  endfacet
  facet normal -0.587785 -0.809017 0
    outer loop
      vertex 42.75 3.65063 -23.5
      vertex 46.9783 0.578621 -23.5
      vertex 46.9783 0.578621 -19.5
    endloop
  endfacet
  facet normal -0.587785 -0.809017 0
    outer loop
      vertex 42.75 3.65063 -19.5
      vertex 42.75 3.65063 -23.5
      vertex 46.9783 0.578621 -19.5
    endloop
  endfacet
  facet normal -0.743145 -0.669131 -0
    outer loop
      vertex 50.4754 -3.30537 -23.5
      vertex 50.4754 -3.30537 -19.5
      vertex 46.9783 0.578621 -23.5
    endloop
  endfacet
  facet normal -0.743145 -0.669131 -0
    outer loop
      vertex 46.9783 0.578621 -23.5
      vertex 50.4754 -3.30537 -19.5
      vertex 46.9783 0.578621 -19.5
    endloop
  endfacet
  facet normal -0.866025 -0.5 -0
    outer loop
      vertex 51.4538 -5 -23.5
      vertex 51.4538 -5 -19.5
      vertex 50.4754 -3.30537 -23.5
    endloop
  endfacet
  facet normal -0.866025 -0.5 -0
    outer loop
      vertex 50.4754 -3.30537 -23.5
      vertex 51.4538 -5 -19.5
      vertex 50.4754 -3.30537 -19.5
    endloop
  endfacet
  facet normal -0 -1 0
    outer loop
      vertex 51.4538 -5 -23.5
      vertex 60.25 -5 -23.5
      vertex 60.25 -5 -19.5
    endloop
  endfacet
  facet normal 0 -1 0
    outer loop
      vertex 51.4538 -5 -19.5
      vertex 51.4538 -5 -23.5
      vertex 57.25 -5 -19.5
    endloop
  endfacet
  facet normal 0 -1 0
    outer loop
      vertex 57.25 -5 -19.5
      vertex 51.4538 -5 -23.5
      vertex 60.25 -5 -19.5
    endloop
  endfacet
  facet normal 0 0.767077 -0.641555
    outer loop
      vertex 58.5 26.6 -18
      vertex 60.5 26.6 -18
      vertex 58.5 22 -23.5
    endloop
  endfacet
  facet normal 0 0.767077 -0.641555
    outer loop
      vertex 58.5 22 -23.5
      vertex 60.5 26.6 -18
      vertex 60.5 22 -23.5
    endloop
  endfacet
  facet normal -1 -0 0
    outer loop
      vertex 58.5 24.2962 -14.5942
      vertex 58.5 26.6 0
      vertex 58.5 26.6 -18
    endloop
  endfacet
  facet normal -1 -0 0
    outer loop
      vertex 58.5 14 -23.5
      vertex 58.5 26.6 -18
      vertex 58.5 22 -23.5
    endloop
  endfacet
  facet normal -1 0 0
    outer loop
      vertex 58.5 14 0
      vertex 58.5 19.1 -7.5
      vertex 58.5 14 -23.5
    endloop
  endfacet
  facet normal -1 0 0
    outer loop
      vertex 58.5 19.1 -7.5
      vertex 58.5 19.3556 -9.44114
      vertex 58.5 14 -23.5
    endloop
  endfacet
  facet normal -1 0 0
    outer loop
      vertex 58.5 19.3556 -9.44114
      vertex 58.5 20.1048 -11.25
      vertex 58.5 14 -23.5
    endloop
  endfacet
  facet normal -1 -0 0
    outer loop
      vertex 58.5 21.2967 -2.1967
      vertex 58.5 26.6 0
      vertex 58.5 24.2962 -5.19615
    endloop
  endfacet
  facet normal -1 0 0
    outer loop
      vertex 58.5 14 -23.5
      vertex 58.5 21.2967 -12.8033
      vertex 58.5 26.6 -18
    endloop
  endfacet
  facet normal -1 0 0
    outer loop
      vertex 58.5 21.2967 -12.8033
      vertex 58.5 22.85 -13.9952
      vertex 58.5 26.6 -18
    endloop
  endfacet
  facet normal -1 0 0
    outer loop
      vertex 58.5 22.85 -13.9952
      vertex 58.5 24.2962 -14.5942
      vertex 58.5 26.6 -18
    endloop
  endfacet
  facet normal -1 -0 0
    outer loop
      vertex 58.5 24.2962 -5.19615
      vertex 58.5 26.6 0
      vertex 58.5 24.2962 -14.5942
    endloop
  endfacet
  facet normal -1 0 0
    outer loop
      vertex 58.5 14 0
      vertex 58.5 26.6 0
      vertex 58.5 21.2967 -2.1967
    endloop
  endfacet
  facet normal -1 0 0
    outer loop
      vertex 58.5 14 0
      vertex 58.5 21.2967 -2.1967
      vertex 58.5 20.1048 -3.75
    endloop
  endfacet
  facet normal -1 0 0
    outer loop
      vertex 58.5 14 0
      vertex 58.5 20.1048 -3.75
      vertex 58.5 19.3556 -5.55886
    endloop
  endfacet
  facet normal -1 0 0
    outer loop
      vertex 58.5 14 0
      vertex 58.5 19.3556 -5.55886
      vertex 58.5 19.1 -7.5
    endloop
  endfacet
  facet normal -1 0 0
    outer loop
      vertex 58.5 21.2967 -12.8033
      vertex 58.5 14 -23.5
      vertex 58.5 20.1048 -11.25
    endloop
  endfacet
  facet normal 0.992709 0.120536 0
    outer loop
      vertex 8.25 2 -23.5
      vertex 8.25 2 -19.5
      vertex 8.30812 1.52137 -19.5
    endloop
  endfacet
  facet normal 0.992709 0.120536 0
    outer loop
      vertex 8.30812 1.52137 -23.5
      vertex 8.25 2 -23.5
      vertex 8.30812 1.52137 -19.5
    endloop
  endfacet
  facet normal 0.992709 -0.120536 0
    outer loop
      vertex 8.25 2 -23.5
      vertex 8.30812 2.47863 -23.5
      vertex 8.30812 2.47863 -19.5
    endloop
  endfacet
  facet normal 0.992709 -0.120536 0
    outer loop
      vertex 8.25 2 -19.5
      vertex 8.25 2 -23.5
      vertex 8.30812 2.47863 -19.5
    endloop
  endfacet
  facet normal 0.935016 -0.354606 0
    outer loop
      vertex 8.30812 2.47863 -23.5
      vertex 8.47909 2.92945 -23.5
      vertex 8.47909 2.92945 -19.5
    endloop
  endfacet
  facet normal 0.935016 -0.354606 0
    outer loop
      vertex 8.30812 2.47863 -19.5
      vertex 8.30812 2.47863 -23.5
      vertex 8.47909 2.92945 -19.5
    endloop
  endfacet
  facet normal 0.822983 -0.568065 0
    outer loop
      vertex 8.47909 2.92945 -23.5
      vertex 8.75298 3.32624 -23.5
      vertex 8.75298 3.32624 -19.5
    endloop
  endfacet
  facet normal 0.822983 -0.568065 0
    outer loop
      vertex 8.47909 2.92945 -19.5
      vertex 8.47909 2.92945 -23.5
      vertex 8.75298 3.32624 -19.5
    endloop
  endfacet
  facet normal 0.663123 -0.74851 0
    outer loop
      vertex 8.75298 3.32624 -23.5
      vertex 9.11387 3.64597 -23.5
      vertex 9.11387 3.64597 -19.5
    endloop
  endfacet
  facet normal 0.663123 -0.74851 0
    outer loop
      vertex 8.75298 3.32624 -19.5
      vertex 8.75298 3.32624 -23.5
      vertex 9.11387 3.64597 -19.5
    endloop
  endfacet
  facet normal 0.464723 -0.885456 0
    outer loop
      vertex 9.11387 3.64597 -23.5
      vertex 9.54079 3.87003 -23.5
      vertex 9.54079 3.87003 -19.5
    endloop
  endfacet
  facet normal 0.464723 -0.885456 0
    outer loop
      vertex 9.11387 3.64597 -19.5
      vertex 9.11387 3.64597 -23.5
      vertex 9.54079 3.87003 -19.5
    endloop
  endfacet
  facet normal 0.239317 -0.970942 0
    outer loop
      vertex 9.54079 3.87003 -23.5
      vertex 10.0089 3.98542 -23.5
      vertex 10.0089 3.98542 -19.5
    endloop
  endfacet
  facet normal 0.239317 -0.970942 0
    outer loop
      vertex 9.54079 3.87003 -19.5
      vertex 9.54079 3.87003 -23.5
      vertex 10.0089 3.98542 -19.5
    endloop
  endfacet
  facet normal -0 -1 0
    outer loop
      vertex 10.0089 3.98542 -23.5
      vertex 10.4911 3.98542 -23.5
      vertex 10.4911 3.98542 -19.5
    endloop
  endfacet
  facet normal 0 -1 0
    outer loop
      vertex 10.0089 3.98542 -19.5
      vertex 10.0089 3.98542 -23.5
      vertex 10.4911 3.98542 -19.5
    endloop
  endfacet
  facet normal -0.239317 -0.970942 0
    outer loop
      vertex 10.4911 3.98542 -23.5
      vertex 10.9592 3.87003 -23.5
      vertex 10.9592 3.87003 -19.5
    endloop
  endfacet
  facet normal -0.239317 -0.970942 0
    outer loop
      vertex 10.4911 3.98542 -19.5
      vertex 10.4911 3.98542 -23.5
      vertex 10.9592 3.87003 -19.5
    endloop
  endfacet
  facet normal -0.464723 -0.885456 0
    outer loop
      vertex 10.9592 3.87003 -23.5
      vertex 11.3861 3.64597 -23.5
      vertex 11.3861 3.64597 -19.5
    endloop
  endfacet
  facet normal -0.464723 -0.885456 0
    outer loop
      vertex 10.9592 3.87003 -19.5
      vertex 10.9592 3.87003 -23.5
      vertex 11.3861 3.64597 -19.5
    endloop
  endfacet
  facet normal -0.663123 -0.74851 0
    outer loop
      vertex 11.3861 3.64597 -23.5
      vertex 11.747 3.32624 -23.5
      vertex 11.747 3.32624 -19.5
    endloop
  endfacet
  facet normal -0.663123 -0.74851 0
    outer loop
      vertex 11.3861 3.64597 -19.5
      vertex 11.3861 3.64597 -23.5
      vertex 11.747 3.32624 -19.5
    endloop
  endfacet
  facet normal -0.822983 -0.568065 -0
    outer loop
      vertex 12.0209 2.92945 -23.5
      vertex 12.0209 2.92945 -19.5
      vertex 11.747 3.32624 -23.5
    endloop
  endfacet
  facet normal -0.822983 -0.568065 -0
    outer loop
      vertex 11.747 3.32624 -23.5
      vertex 12.0209 2.92945 -19.5
      vertex 11.747 3.32624 -19.5
    endloop
  endfacet
  facet normal -0.935016 -0.354606 -0
    outer loop
      vertex 12.1919 2.47863 -23.5
      vertex 12.1919 2.47863 -19.5
      vertex 12.0209 2.92945 -23.5
    endloop
  endfacet
  facet normal -0.935016 -0.354606 -0
    outer loop
      vertex 12.0209 2.92945 -23.5
      vertex 12.1919 2.47863 -19.5
      vertex 12.0209 2.92945 -19.5
    endloop
  endfacet
  facet normal -0.992709 -0.120536 -0
    outer loop
      vertex 12.25 2 -23.5
      vertex 12.25 2 -19.5
      vertex 12.1919 2.47863 -23.5
    endloop
  endfacet
  facet normal -0.992709 -0.120536 -0
    outer loop
      vertex 12.1919 2.47863 -23.5
      vertex 12.25 2 -19.5
      vertex 12.1919 2.47863 -19.5
    endloop
  endfacet
  facet normal -0.992709 0.120536 0
    outer loop
      vertex 12.1919 1.52137 -19.5
      vertex 12.25 2 -19.5
      vertex 12.1919 1.52137 -23.5
    endloop
  endfacet
  facet normal -0.992709 0.120536 0
    outer loop
      vertex 12.1919 1.52137 -23.5
      vertex 12.25 2 -19.5
      vertex 12.25 2 -23.5
    endloop
  endfacet
  facet normal -0.935016 0.354606 0
    outer loop
      vertex 12.0209 1.07055 -19.5
      vertex 12.1919 1.52137 -19.5
      vertex 12.0209 1.07055 -23.5
    endloop
  endfacet
  facet normal -0.935016 0.354606 0
    outer loop
      vertex 12.0209 1.07055 -23.5
      vertex 12.1919 1.52137 -19.5
      vertex 12.1919 1.52137 -23.5
    endloop
  endfacet
  facet normal -0.822983 0.568065 0
    outer loop
      vertex 11.747 0.673755 -19.5
      vertex 12.0209 1.07055 -19.5
      vertex 11.747 0.673755 -23.5
    endloop
  endfacet
  facet normal -0.822983 0.568065 0
    outer loop
      vertex 11.747 0.673755 -23.5
      vertex 12.0209 1.07055 -19.5
      vertex 12.0209 1.07055 -23.5
    endloop
  endfacet
  facet normal -0.663123 0.74851 0
    outer loop
      vertex 11.3861 0.354032 -19.5
      vertex 11.747 0.673755 -19.5
      vertex 11.3861 0.354032 -23.5
    endloop
  endfacet
  facet normal -0.663123 0.74851 0
    outer loop
      vertex 11.3861 0.354032 -23.5
      vertex 11.747 0.673755 -19.5
      vertex 11.747 0.673755 -23.5
    endloop
  endfacet
  facet normal -0.464723 0.885456 0
    outer loop
      vertex 10.9592 0.129968 -19.5
      vertex 11.3861 0.354032 -19.5
      vertex 10.9592 0.129968 -23.5
    endloop
  endfacet
  facet normal -0.464723 0.885456 0
    outer loop
      vertex 10.9592 0.129968 -23.5
      vertex 11.3861 0.354032 -19.5
      vertex 11.3861 0.354032 -23.5
    endloop
  endfacet
  facet normal -0.239317 0.970942 0
    outer loop
      vertex 10.4911 0.014582 -19.5
      vertex 10.9592 0.129968 -19.5
      vertex 10.4911 0.014582 -23.5
    endloop
  endfacet
  facet normal -0.239317 0.970942 0
    outer loop
      vertex 10.4911 0.014582 -23.5
      vertex 10.9592 0.129968 -19.5
      vertex 10.9592 0.129968 -23.5
    endloop
  endfacet
  facet normal 0 1 -0
    outer loop
      vertex 10.0089 0.014582 -19.5
      vertex 10.4911 0.014582 -19.5
      vertex 10.0089 0.014582 -23.5
    endloop
  endfacet
  facet normal 0 1 0
    outer loop
      vertex 10.0089 0.014582 -23.5
      vertex 10.4911 0.014582 -19.5
      vertex 10.4911 0.014582 -23.5
    endloop
  endfacet
  facet normal 0.239317 0.970942 -0
    outer loop
      vertex 9.54079 0.129968 -19.5
      vertex 10.0089 0.014582 -19.5
      vertex 9.54079 0.129968 -23.5
    endloop
  endfacet
  facet normal 0.239317 0.970942 0
    outer loop
      vertex 9.54079 0.129968 -23.5
      vertex 10.0089 0.014582 -19.5
      vertex 10.0089 0.014582 -23.5
    endloop
  endfacet
  facet normal 0.464723 0.885456 -0
    outer loop
      vertex 9.11387 0.354032 -19.5
      vertex 9.54079 0.129968 -19.5
      vertex 9.11387 0.354032 -23.5
    endloop
  endfacet
  facet normal 0.464723 0.885456 0
    outer loop
      vertex 9.11387 0.354032 -23.5
      vertex 9.54079 0.129968 -19.5
      vertex 9.54079 0.129968 -23.5
    endloop
  endfacet
  facet normal 0.663123 0.74851 -0
    outer loop
      vertex 8.75298 0.673755 -19.5
      vertex 9.11387 0.354032 -19.5
      vertex 8.75298 0.673755 -23.5
    endloop
  endfacet
  facet normal 0.663123 0.74851 0
    outer loop
      vertex 8.75298 0.673755 -23.5
      vertex 9.11387 0.354032 -19.5
      vertex 9.11387 0.354032 -23.5
    endloop
  endfacet
  facet normal 0.822983 0.568065 0
    outer loop
      vertex 8.47909 1.07055 -23.5
      vertex 8.47909 1.07055 -19.5
      vertex 8.75298 0.673755 -19.5
    endloop
  endfacet
  facet normal 0.822983 0.568065 0
    outer loop
      vertex 8.75298 0.673755 -23.5
      vertex 8.47909 1.07055 -23.5
      vertex 8.75298 0.673755 -19.5
    endloop
  endfacet
  facet normal 0.935016 0.354606 0
    outer loop
      vertex 8.30812 1.52137 -23.5
      vertex 8.30812 1.52137 -19.5
      vertex 8.47909 1.07055 -19.5
    endloop
  endfacet
  facet normal 0.935016 0.354606 0
    outer loop
      vertex 8.47909 1.07055 -23.5
      vertex 8.30812 1.52137 -23.5
      vertex 8.47909 1.07055 -19.5
    endloop
  endfacet
  facet normal 0.992709 0.120536 0
    outer loop
      vertex 48.25 2 -23.5
      vertex 48.25 2 -19.5
      vertex 48.3081 1.52137 -19.5
    endloop
  endfacet
  facet normal 0.992709 0.120536 0
    outer loop
      vertex 48.3081 1.52137 -23.5
      vertex 48.25 2 -23.5
      vertex 48.3081 1.52137 -19.5
    endloop
  endfacet
  facet normal 0.992709 -0.120536 0
    outer loop
      vertex 48.25 2 -23.5
      vertex 48.3081 2.47863 -23.5
      vertex 48.3081 2.47863 -19.5
    endloop
  endfacet
  facet normal 0.992709 -0.120536 0
    outer loop
      vertex 48.25 2 -19.5
      vertex 48.25 2 -23.5
      vertex 48.3081 2.47863 -19.5
    endloop
  endfacet
  facet normal 0.935016 -0.354606 0
    outer loop
      vertex 48.3081 2.47863 -23.5
      vertex 48.4791 2.92945 -23.5
      vertex 48.4791 2.92945 -19.5
    endloop
  endfacet
  facet normal 0.935016 -0.354606 0
    outer loop
      vertex 48.3081 2.47863 -19.5
      vertex 48.3081 2.47863 -23.5
      vertex 48.4791 2.92945 -19.5
    endloop
  endfacet
  facet normal 0.822983 -0.568065 0
    outer loop
      vertex 48.4791 2.92945 -23.5
      vertex 48.753 3.32624 -23.5
      vertex 48.753 3.32624 -19.5
    endloop
  endfacet
  facet normal 0.822983 -0.568065 0
    outer loop
      vertex 48.4791 2.92945 -19.5
      vertex 48.4791 2.92945 -23.5
      vertex 48.753 3.32624 -19.5
    endloop
  endfacet
  facet normal 0.663123 -0.74851 0
    outer loop
      vertex 48.753 3.32624 -23.5
      vertex 49.1139 3.64597 -23.5
      vertex 49.1139 3.64597 -19.5
    endloop
  endfacet
  facet normal 0.663123 -0.74851 0
    outer loop
      vertex 48.753 3.32624 -19.5
      vertex 48.753 3.32624 -23.5
      vertex 49.1139 3.64597 -19.5
    endloop
  endfacet
  facet normal 0.464723 -0.885456 0
    outer loop
      vertex 49.1139 3.64597 -23.5
      vertex 49.5408 3.87003 -23.5
      vertex 49.5408 3.87003 -19.5
    endloop
  endfacet
  facet normal 0.464723 -0.885456 0
    outer loop
      vertex 49.1139 3.64597 -19.5
      vertex 49.1139 3.64597 -23.5
      vertex 49.5408 3.87003 -19.5
    endloop
  endfacet
  facet normal 0.239317 -0.970942 0
    outer loop
      vertex 49.5408 3.87003 -23.5
      vertex 50.0089 3.98542 -23.5
      vertex 50.0089 3.98542 -19.5
    endloop
  endfacet
  facet normal 0.239317 -0.970942 0
    outer loop
      vertex 49.5408 3.87003 -19.5
      vertex 49.5408 3.87003 -23.5
      vertex 50.0089 3.98542 -19.5
    endloop
  endfacet
  facet normal -0 -1 0
    outer loop
      vertex 50.0089 3.98542 -23.5
      vertex 50.4911 3.98542 -23.5
      vertex 50.4911 3.98542 -19.5
    endloop
  endfacet
  facet normal 0 -1 0
    outer loop
      vertex 50.0089 3.98542 -19.5
      vertex 50.0089 3.98542 -23.5
      vertex 50.4911 3.98542 -19.5
    endloop
  endfacet
  facet normal -0.239317 -0.970942 0
    outer loop
      vertex 50.4911 3.98542 -23.5
      vertex 50.9592 3.87003 -23.5
      vertex 50.9592 3.87003 -19.5
    endloop
  endfacet
  facet normal -0.239317 -0.970942 0
    outer loop
      vertex 50.4911 3.98542 -19.5
      vertex 50.4911 3.98542 -23.5
      vertex 50.9592 3.87003 -19.5
    endloop
  endfacet
  facet normal -0.464723 -0.885456 0
    outer loop
      vertex 50.9592 3.87003 -23.5
      vertex 51.3861 3.64597 -23.5
      vertex 51.3861 3.64597 -19.5
    endloop
  endfacet
  facet normal -0.464723 -0.885456 0
    outer loop
      vertex 50.9592 3.87003 -19.5
      vertex 50.9592 3.87003 -23.5
      vertex 51.3861 3.64597 -19.5
    endloop
  endfacet
  facet normal -0.663123 -0.74851 0
    outer loop
      vertex 51.3861 3.64597 -23.5
      vertex 51.747 3.32624 -23.5
      vertex 51.747 3.32624 -19.5
    endloop
  endfacet
  facet normal -0.663123 -0.74851 0
    outer loop
      vertex 51.3861 3.64597 -19.5
      vertex 51.3861 3.64597 -23.5
      vertex 51.747 3.32624 -19.5
    endloop
  endfacet
  facet normal -0.822983 -0.568065 -0
    outer loop
      vertex 52.0209 2.92945 -23.5
      vertex 52.0209 2.92945 -19.5
      vertex 51.747 3.32624 -23.5
    endloop
  endfacet
  facet normal -0.822983 -0.568065 -0
    outer loop
      vertex 51.747 3.32624 -23.5
      vertex 52.0209 2.92945 -19.5
      vertex 51.747 3.32624 -19.5
    endloop
  endfacet
  facet normal -0.935016 -0.354606 -0
    outer loop
      vertex 52.1919 2.47863 -23.5
      vertex 52.1919 2.47863 -19.5
      vertex 52.0209 2.92945 -23.5
    endloop
  endfacet
  facet normal -0.935016 -0.354606 -0
    outer loop
      vertex 52.0209 2.92945 -23.5
      vertex 52.1919 2.47863 -19.5
      vertex 52.0209 2.92945 -19.5
    endloop
  endfacet
  facet normal -0.992709 -0.120536 -0
    outer loop
      vertex 52.25 2 -23.5
      vertex 52.25 2 -19.5
      vertex 52.1919 2.47863 -23.5
    endloop
  endfacet
  facet normal -0.992709 -0.120536 -0
    outer loop
      vertex 52.1919 2.47863 -23.5
      vertex 52.25 2 -19.5
      vertex 52.1919 2.47863 -19.5
    endloop
  endfacet
  facet normal -0.992709 0.120536 0
    outer loop
      vertex 52.1919 1.52137 -19.5
      vertex 52.25 2 -19.5
      vertex 52.1919 1.52137 -23.5
    endloop
  endfacet
  facet normal -0.992709 0.120536 0
    outer loop
      vertex 52.1919 1.52137 -23.5
      vertex 52.25 2 -19.5
      vertex 52.25 2 -23.5
    endloop
  endfacet
  facet normal -0.935016 0.354606 0
    outer loop
      vertex 52.0209 1.07055 -19.5
      vertex 52.1919 1.52137 -19.5
      vertex 52.0209 1.07055 -23.5
    endloop
  endfacet
  facet normal -0.935016 0.354606 0
    outer loop
      vertex 52.0209 1.07055 -23.5
      vertex 52.1919 1.52137 -19.5
      vertex 52.1919 1.52137 -23.5
    endloop
  endfacet
  facet normal -0.822983 0.568065 0
    outer loop
      vertex 51.747 0.673755 -19.5
      vertex 52.0209 1.07055 -19.5
      vertex 51.747 0.673755 -23.5
    endloop
  endfacet
  facet normal -0.822983 0.568065 0
    outer loop
      vertex 51.747 0.673755 -23.5
      vertex 52.0209 1.07055 -19.5
      vertex 52.0209 1.07055 -23.5
    endloop
  endfacet
  facet normal -0.663123 0.74851 0
    outer loop
      vertex 51.3861 0.354032 -19.5
      vertex 51.747 0.673755 -19.5
      vertex 51.3861 0.354032 -23.5
    endloop
  endfacet
  facet normal -0.663123 0.74851 0
    outer loop
      vertex 51.3861 0.354032 -23.5
      vertex 51.747 0.673755 -19.5
      vertex 51.747 0.673755 -23.5
    endloop
  endfacet
  facet normal -0.464723 0.885456 0
    outer loop
      vertex 50.9592 0.129968 -19.5
      vertex 51.3861 0.354032 -19.5
      vertex 50.9592 0.129968 -23.5
    endloop
  endfacet
  facet normal -0.464723 0.885456 0
    outer loop
      vertex 50.9592 0.129968 -23.5
      vertex 51.3861 0.354032 -19.5
      vertex 51.3861 0.354032 -23.5
    endloop
  endfacet
  facet normal -0.239317 0.970942 0
    outer loop
      vertex 50.4911 0.014582 -19.5
      vertex 50.9592 0.129968 -19.5
      vertex 50.4911 0.014582 -23.5
    endloop
  endfacet
  facet normal -0.239317 0.970942 0
    outer loop
      vertex 50.4911 0.014582 -23.5
      vertex 50.9592 0.129968 -19.5
      vertex 50.9592 0.129968 -23.5
    endloop
  endfacet
  facet normal 0 1 -0
    outer loop
      vertex 50.0089 0.014582 -19.5
      vertex 50.4911 0.014582 -19.5
      vertex 50.0089 0.014582 -23.5
    endloop
  endfacet
  facet normal 0 1 0
    outer loop
      vertex 50.0089 0.014582 -23.5
      vertex 50.4911 0.014582 -19.5
      vertex 50.4911 0.014582 -23.5
    endloop
  endfacet
  facet normal 0.239317 0.970942 -0
    outer loop
      vertex 49.5408 0.129968 -19.5
      vertex 50.0089 0.014582 -19.5
      vertex 49.5408 0.129968 -23.5
    endloop
  endfacet
  facet normal 0.239317 0.970942 0
    outer loop
      vertex 49.5408 0.129968 -23.5
      vertex 50.0089 0.014582 -19.5
      vertex 50.0089 0.014582 -23.5
    endloop
  endfacet
  facet normal 0.464723 0.885456 -0
    outer loop
      vertex 49.1139 0.354032 -19.5
      vertex 49.5408 0.129968 -19.5
      vertex 49.1139 0.354032 -23.5
    endloop
  endfacet
  facet normal 0.464723 0.885456 0
    outer loop
      vertex 49.1139 0.354032 -23.5
      vertex 49.5408 0.129968 -19.5
      vertex 49.5408 0.129968 -23.5
    endloop
  endfacet
  facet normal 0.663123 0.74851 -0
    outer loop
      vertex 48.753 0.673755 -19.5
      vertex 49.1139 0.354032 -19.5
      vertex 48.753 0.673755 -23.5
    endloop
  endfacet
  facet normal 0.663123 0.74851 0
    outer loop
      vertex 48.753 0.673755 -23.5
      vertex 49.1139 0.354032 -19.5
      vertex 49.1139 0.354032 -23.5
    endloop
  endfacet
  facet normal 0.822983 0.568065 0
    outer loop
      vertex 48.4791 1.07055 -23.5
      vertex 48.4791 1.07055 -19.5
      vertex 48.753 0.673755 -19.5
    endloop
  endfacet
  facet normal 0.822983 0.568065 0
    outer loop
      vertex 48.753 0.673755 -23.5
      vertex 48.4791 1.07055 -23.5
      vertex 48.753 0.673755 -19.5
    endloop
  endfacet
  facet normal 0.935016 0.354606 0
    outer loop
      vertex 48.3081 1.52137 -23.5
      vertex 48.3081 1.52137 -19.5
      vertex 48.4791 1.07055 -19.5
    endloop
  endfacet
  facet normal 0.935016 0.354606 0
    outer loop
      vertex 48.4791 1.07055 -23.5
      vertex 48.3081 1.52137 -23.5
      vertex 48.4791 1.07055 -19.5
    endloop
  endfacet
  facet normal 4.06423e-17 -0.991445 0.130526
    outer loop
      vertex 2 19.3556 -5.55886
      vertex 2 19.1 -7.5
      vertex 4.85245 19.3556 -5.55886
    endloop
  endfacet
  facet normal 1.92242e-17 -0.991445 0.130526
    outer loop
      vertex 4.85245 19.3556 -5.55886
      vertex 2 19.1 -7.5
      vertex 5 19.1 -7.5
    endloop
  endfacet
  facet normal -8.08742e-17 -0.991445 -0.130526
    outer loop
      vertex 2 19.1 -7.5
      vertex 2 19.3556 -9.44114
      vertex 4.85245 19.3556 -9.44114
    endloop
  endfacet
  facet normal -2.38409e-17 -0.991445 -0.130526
    outer loop
      vertex 5 19.1 -7.5
      vertex 2 19.1 -7.5
      vertex 4.85245 19.3556 -9.44114
    endloop
  endfacet
  facet normal 0 -0.92388 -0.382683
    outer loop
      vertex 2 19.3556 -9.44114
      vertex 2 20.1048 -11.25
      vertex 4.41987 20.1048 -11.25
    endloop
  endfacet
  facet normal -2.38315e-16 -0.92388 -0.382683
    outer loop
      vertex 4.85245 19.3556 -9.44114
      vertex 2 19.3556 -9.44114
      vertex 4.41987 20.1048 -11.25
    endloop
  endfacet
  facet normal 0 -0.793353 -0.608762
    outer loop
      vertex 2 20.1048 -11.25
      vertex 2 21.2967 -12.8033
      vertex 3.73174 21.2967 -12.8033
    endloop
  endfacet
  facet normal 0 -0.793353 -0.608762
    outer loop
      vertex 4.41987 20.1048 -11.25
      vertex 2 20.1048 -11.25
      vertex 3.73174 21.2967 -12.8033
    endloop
  endfacet
  facet normal -0 -0.608762 -0.793353
    outer loop
      vertex 2 22.85 -13.9952
      vertex 2.83494 22.85 -13.9952
      vertex 2 21.2967 -12.8033
    endloop
  endfacet
  facet normal -0 -0.608762 -0.793353
    outer loop
      vertex 2 21.2967 -12.8033
      vertex 2.83494 22.85 -13.9952
      vertex 3.73174 21.2967 -12.8033
    endloop
  endfacet
  facet normal -0 -0.382683 -0.92388
    outer loop
      vertex 2 22.85 -13.9952
      vertex 2 24.2962 -14.5942
      vertex 2.83494 22.85 -13.9952
    endloop
  endfacet
  facet normal 1.65856e-16 4.14639e-17 0
    outer loop
      vertex 2 24.2962 -14.5942
      vertex 2 24.2962 -5.19615
      vertex 2 24.2962 -0.405793
    endloop
  endfacet
  facet normal 0.866025 0.5 1.6181e-16
    outer loop
      vertex 3.73174 21.2967 -2.1967
      vertex 2 24.2962 -14.5942
      vertex 2.83494 22.85 -1.00481
    endloop
  endfacet
  facet normal 0.866025 0.5 7.43663e-17
    outer loop
      vertex 2.83494 22.85 -1.00481
      vertex 2 24.2962 -14.5942
      vertex 2 24.2962 -0.405793
    endloop
  endfacet
  facet normal 0.866025 0.5 3.63597e-17
    outer loop
      vertex 4.41987 20.1048 -3.75
      vertex 2 24.2962 -14.5942
      vertex 3.73174 21.2967 -2.1967
    endloop
  endfacet
  facet normal 0.866025 0.5 1.5617e-17
    outer loop
      vertex 4.85245 19.3556 -5.55886
      vertex 2 24.2962 -14.5942
      vertex 4.41987 20.1048 -3.75
    endloop
  endfacet
  facet normal 0.866025 0.5 -1.01663e-16
    outer loop
      vertex 5 19.1 -7.5
      vertex 2 24.2962 -14.5942
      vertex 4.85245 19.3556 -5.55886
    endloop
  endfacet
  facet normal 0.866025 0.5 1.54295e-16
    outer loop
      vertex 4.85245 19.3556 -9.44114
      vertex 2 24.2962 -14.5942
      vertex 5 19.1 -7.5
    endloop
  endfacet
  facet normal 0.866025 0.5 -1.66382e-16
    outer loop
      vertex 4.41987 20.1048 -11.25
      vertex 2 24.2962 -14.5942
      vertex 4.85245 19.3556 -9.44114
    endloop
  endfacet
  facet normal 0.866025 0.5 -1.71325e-16
    outer loop
      vertex 3.73174 21.2967 -12.8033
      vertex 2 24.2962 -14.5942
      vertex 4.41987 20.1048 -11.25
    endloop
  endfacet
  facet normal 0.866025 0.5 -4.38691e-15
    outer loop
      vertex 2.83494 22.85 -13.9952
      vertex 2 24.2962 -14.5942
      vertex 3.73174 21.2967 -12.8033
    endloop
  endfacet
  facet normal -1 3.31932e-16 -5.99891e-17
    outer loop
      vertex 2 22.85 -1.00481
      vertex 2 24.2962 -0.405793
      vertex 2 21.2967 -2.1967
    endloop
  endfacet
  facet normal -1 1.8541e-16 1.8541e-16
    outer loop
      vertex 2 21.2967 -2.1967
      vertex 2 24.2962 -0.405793
      vertex 2 24.2962 -5.19615
    endloop
  endfacet
  facet normal 0 -0.608762 0.793353
    outer loop
      vertex 2 21.2967 -2.1967
      vertex 3.73174 21.2967 -2.1967
      vertex 2.83494 22.85 -1.00481
    endloop
  endfacet
  facet normal -2.59032e-15 -0.608762 0.793353
    outer loop
      vertex 2 22.85 -1.00481
      vertex 2 21.2967 -2.1967
      vertex 2.83494 22.85 -1.00481
    endloop
  endfacet
  facet normal 1.11718e-16 -0.793353 0.608762
    outer loop
      vertex 2 20.1048 -3.75
      vertex 4.41987 20.1048 -3.75
      vertex 3.73174 21.2967 -2.1967
    endloop
  endfacet
  facet normal 0 -0.793353 0.608762
    outer loop
      vertex 2 21.2967 -2.1967
      vertex 2 20.1048 -3.75
      vertex 3.73174 21.2967 -2.1967
    endloop
  endfacet
  facet normal 1.19157e-16 -0.92388 0.382683
    outer loop
      vertex 2 19.3556 -5.55886
      vertex 4.85245 19.3556 -5.55886
      vertex 4.41987 20.1048 -3.75
    endloop
  endfacet
  facet normal 7.02291e-17 -0.92388 0.382683
    outer loop
      vertex 2 20.1048 -3.75
      vertex 2 19.3556 -5.55886
      vertex 4.41987 20.1048 -3.75
    endloop
  endfacet
  facet normal 0 1 -0
    outer loop
      vertex 58.5 26.6 0
      vertex 60.5 26.6 0
      vertex 58.5 26.6 -18
    endloop
  endfacet
  facet normal 0 1 0
    outer loop
      vertex 58.5 26.6 -18
      vertex 60.5 26.6 0
      vertex 60.5 26.6 -18
    endloop
  endfacet
  facet normal 0 -0.274721 0.961524
    outer loop
      vertex 57.25 -5 -19.5
      vertex 60.25 -5 -19.5
      vertex 60.25 9 -15.5
    endloop
  endfacet
  facet normal 0 -0.274721 0.961524
    outer loop
      vertex 57.25 9 -15.5
      vertex 57.25 -5 -19.5
      vertex 60.25 9 -15.5
    endloop
  endfacet
  facet normal 0 -0.274721 0.961524
    outer loop
      vertex 0.25 -5 -19.5
      vertex 3.25 -5 -19.5
      vertex 3.25 9 -15.5
    endloop
  endfacet
  facet normal 0 -0.274721 0.961524
    outer loop
      vertex 0.25 9 -15.5
      vertex 0.25 -5 -19.5
      vertex 3.25 9 -15.5
    endloop
  endfacet
  facet normal -4.06423e-17 -0.991445 0.130526
    outer loop
      vertex 55.6475 19.3556 -5.55886
      vertex 55.5 19.1 -7.5
      vertex 58.5 19.3556 -5.55886
    endloop
  endfacet
  facet normal -2.12644e-17 -0.991445 0.130526
    outer loop
      vertex 58.5 19.3556 -5.55886
      vertex 55.5 19.1 -7.5
      vertex 58.5 19.1 -7.5
    endloop
  endfacet
  facet normal 0 -0.991445 -0.130526
    outer loop
      vertex 58.5 19.1 -7.5
      vertex 55.5 19.1 -7.5
      vertex 58.5 19.3556 -9.44114
    endloop
  endfacet
  facet normal 8.12847e-17 -0.991445 -0.130526
    outer loop
      vertex 58.5 19.3556 -9.44114
      vertex 55.5 19.1 -7.5
      vertex 55.6475 19.3556 -9.44114
    endloop
  endfacet
  facet normal -1.19157e-16 -0.92388 0.382683
    outer loop
      vertex 55.6475 19.3556 -5.55886
      vertex 58.5 19.3556 -5.55886
      vertex 58.5 20.1048 -3.75
    endloop
  endfacet
  facet normal -7.02291e-17 -0.92388 0.382683
    outer loop
      vertex 56.0801 20.1048 -3.75
      vertex 55.6475 19.3556 -5.55886
      vertex 58.5 20.1048 -3.75
    endloop
  endfacet
  facet normal -1.11718e-16 -0.793353 0.608762
    outer loop
      vertex 56.0801 20.1048 -3.75
      vertex 58.5 20.1048 -3.75
      vertex 58.5 21.2967 -2.1967
    endloop
  endfacet
  facet normal 0 -0.793353 0.608762
    outer loop
      vertex 56.7683 21.2967 -2.1967
      vertex 56.0801 20.1048 -3.75
      vertex 58.5 21.2967 -2.1967
    endloop
  endfacet
  facet normal 0 -0.608762 0.793353
    outer loop
      vertex 56.7683 21.2967 -2.1967
      vertex 58.5 21.2967 -2.1967
      vertex 58.5 22.85 -1.00481
    endloop
  endfacet
  facet normal 2.59032e-15 -0.608762 0.793353
    outer loop
      vertex 57.6651 22.85 -1.00481
      vertex 56.7683 21.2967 -2.1967
      vertex 58.5 22.85 -1.00481
    endloop
  endfacet
  facet normal 1 -5.36592e-15 1.29545e-14
    outer loop
      vertex 58.5 24.2962 -0.405793
      vertex 58.5 22.85 -1.00481
      vertex 58.5 21.2967 -2.1967
    endloop
  endfacet
  facet normal 1 1.48328e-15 1.48328e-15
    outer loop
      vertex 58.5 24.2962 -5.19615
      vertex 58.5 24.2962 -0.405793
      vertex 58.5 21.2967 -2.1967
    endloop
  endfacet
  facet normal -0.866025 0.5 -4.11945e-15
    outer loop
      vertex 55.6475 19.3556 -5.55886
      vertex 56.0801 20.1048 -3.75
      vertex 55.5 19.1 -7.5
    endloop
  endfacet
  facet normal -0.866025 0.5 -4.64822e-16
    outer loop
      vertex 55.5 19.1 -7.5
      vertex 56.0801 20.1048 -3.75
      vertex 56.7683 21.2967 -2.1967
    endloop
  endfacet
  facet normal -0.866025 0.5 1.17297e-15
    outer loop
      vertex 55.5 19.1 -7.5
      vertex 56.7683 21.2967 -2.1967
      vertex 57.6651 22.85 -1.00481
    endloop
  endfacet
  facet normal -0.866025 0.5 6.77082e-16
    outer loop
      vertex 55.5 19.1 -7.5
      vertex 57.6651 22.85 -1.00481
      vertex 58.5 24.2962 -0.405793
    endloop
  endfacet
  facet normal -0.866025 0.5 -9.72005e-16
    outer loop
      vertex 55.5 19.1 -7.5
      vertex 58.5 24.2962 -0.405793
      vertex 58.5 24.2962 -5.19615
    endloop
  endfacet
  facet normal -0.866025 0.5 0
    outer loop
      vertex 55.5 19.1 -7.5
      vertex 58.5 24.2962 -5.19615
      vertex 58.5 24.2962 -14.5942
    endloop
  endfacet
  facet normal -0.866025 0.5 1.69271e-15
    outer loop
      vertex 55.5 19.1 -7.5
      vertex 58.5 24.2962 -14.5942
      vertex 57.6651 22.85 -13.9952
    endloop
  endfacet
  facet normal -0.866025 0.5 -1.17297e-15
    outer loop
      vertex 55.5 19.1 -7.5
      vertex 57.6651 22.85 -13.9952
      vertex 56.7683 21.2967 -12.8033
    endloop
  endfacet
  facet normal -0.866025 0.5 4.64822e-16
    outer loop
      vertex 55.5 19.1 -7.5
      vertex 56.7683 21.2967 -12.8033
      vertex 56.0801 20.1048 -11.25
    endloop
  endfacet
  facet normal -0.866025 0.5 4.13096e-15
    outer loop
      vertex 55.5 19.1 -7.5
      vertex 56.0801 20.1048 -11.25
      vertex 55.6475 19.3556 -9.44114
    endloop
  endfacet
  facet normal -0 -0.382683 -0.92388
    outer loop
      vertex 57.6651 22.85 -13.9952
      vertex 58.5 24.2962 -14.5942
      vertex 58.5 22.85 -13.9952
    endloop
  endfacet
  facet normal -0 -0.608762 -0.793353
    outer loop
      vertex 57.6651 22.85 -13.9952
      vertex 58.5 22.85 -13.9952
      vertex 56.7683 21.2967 -12.8033
    endloop
  endfacet
  facet normal -0 -0.608762 -0.793353
    outer loop
      vertex 56.7683 21.2967 -12.8033
      vertex 58.5 22.85 -13.9952
      vertex 58.5 21.2967 -12.8033
    endloop
  endfacet
  facet normal 0 -0.793353 -0.608762
    outer loop
      vertex 56.0801 20.1048 -11.25
      vertex 56.7683 21.2967 -12.8033
      vertex 58.5 21.2967 -12.8033
    endloop
  endfacet
  facet normal 0 -0.793353 -0.608762
    outer loop
      vertex 58.5 20.1048 -11.25
      vertex 56.0801 20.1048 -11.25
      vertex 58.5 21.2967 -12.8033
    endloop
  endfacet
  facet normal 0 -0.92388 -0.382683
    outer loop
      vertex 55.6475 19.3556 -9.44114
      vertex 56.0801 20.1048 -11.25
      vertex 58.5 20.1048 -11.25
    endloop
  endfacet
  facet normal 2.38315e-16 -0.92388 -0.382683
    outer loop
      vertex 58.5 19.3556 -9.44114
      vertex 55.6475 19.3556 -9.44114
      vertex 58.5 20.1048 -11.25
    endloop
  endfacet
  facet normal -1.62834e-15 -0.382683 0.92388
    outer loop
      vertex 2 22.85 -1.00481
      vertex 2.83494 22.85 -1.00481
      vertex 2 24.2962 -0.405793
    endloop
  endfacet
  facet normal 1.62834e-15 -0.382683 0.92388
    outer loop
      vertex 57.6651 22.85 -1.00481
      vertex 58.5 22.85 -1.00481
      vertex 58.5 24.2962 -0.405793
    endloop
  endfacet
endsolid OpenSCAD_Model
